<?xml version="1.0" standalone="no"?>
<!DOCTYPE svg PUBLIC "-//W3C//DTD SVG 20010904//EN"
 "http://www.w3.org/TR/2001/REC-SVG-20010904/DTD/svg10.dtd">
<svg version="1.0" xmlns="http://www.w3.org/2000/svg"
 width="5000.000000pt" height="5000.000000pt" viewBox="0 0 5000.000000 5000.000000"
 preserveAspectRatio="xMidYMid meet">

<g transform="translate(0.000000,5000.000000) scale(0.100000,-0.100000)"
fill="#000000" stroke="none">
<path d="M0 37707 l0 -12292 10683 -10681 c5875 -5875 10743 -10737 10817
-10805 1219 -1118 2571 -2006 4060 -2664 1619 -716 3453 -1151 5205 -1234 121
-6 267 -13 324 -16 l104 -5 -6 167 c-4 91 -7 226 -7 300 l0 133 -35 0 -35 0 0
385 0 385 -33 0 -34 0 -6 338 c-4 185 -7 408 -7 495 l0 157 -35 0 -35 0 0 650
0 650 -33 0 -34 0 -6 347 c-4 190 -7 550 -7 800 l0 453 -35 0 c-33 0 -35 2
-35 35 0 33 2 35 35 35 l35 0 0 120 0 120 -35 0 c-33 0 -35 2 -35 35 0 33 2
35 35 35 34 0 35 1 35 40 l0 40 40 0 40 0 0 75 0 75 -75 0 -75 0 0 115 0 115
35 0 c34 0 35 1 35 40 0 39 -1 40 -35 40 -33 0 -35 2 -35 35 0 33 2 35 33 35
l34 0 6 398 c4 218 7 596 7 840 l0 442 35 0 35 0 0 380 0 380 34 0 33 0 6 67
c4 38 7 107 7 156 l0 87 35 0 35 0 0 155 0 155 40 0 40 0 0 110 0 110 34 0
c34 0 35 1 38 42 3 42 4 43 41 46 l37 3 0 225 0 224 35 0 35 0 0 115 0 115
-35 0 c-33 0 -35 -2 -35 -35 0 -33 -2 -35 -35 -35 l-35 0 0 645 0 645 35 0 35
0 0 230 0 230 33 0 34 0 6 113 c4 61 7 165 7 230 l0 117 35 0 35 0 0 190 0
190 34 0 c33 0 33 1 40 53 3 28 6 80 6 115 l0 62 35 0 35 0 0 115 0 115 40 0
40 0 0 75 0 75 35 0 35 0 0 115 0 115 34 0 33 0 7 61 c3 34 6 86 6 115 l0 54
35 0 35 0 0 80 0 80 33 0 34 0 6 -122 c4 -66 7 -170 7 -230 l0 -108 35 0 35 0
0 -155 0 -155 35 0 34 0 3 -77 3 -78 37 -3 37 -3 3 -72 3 -72 38 -3 37 -3 0
-75 0 -74 35 0 35 0 0 -75 0 -75 40 0 40 0 0 -80 0 -80 34 0 34 0 7 -75 7 -75
34 0 34 0 0 -75 0 -75 34 0 c33 0 35 -2 38 -37 3 -36 5 -38 41 -41 l37 -3 0
-75 0 -74 35 0 c33 0 35 -2 35 -35 0 -34 1 -35 40 -35 l40 0 0 -40 c0 -39 1
-40 34 -40 l34 0 7 -75 7 -75 34 0 c33 0 34 -1 34 -40 l0 -40 40 0 40 0 0 -40
c0 -39 1 -40 34 -40 l34 0 7 -75 7 -75 68 0 68 0 7 -75 7 -75 34 0 c33 0 34
-1 34 -40 0 -39 1 -40 34 -40 l34 0 7 -75 7 -75 34 0 34 0 0 -75 0 -75 35 0
c34 0 35 -1 35 -40 l0 -40 40 0 40 0 0 -75 0 -75 35 0 c34 0 35 -1 35 -40 l0
-40 40 0 40 0 0 -75 0 -75 35 0 c34 0 35 -1 35 -40 l0 -40 40 0 40 0 0 -75 0
-75 40 0 40 0 0 -74 0 -75 38 -3 c35 -3 37 -5 40 -40 3 -36 5 -38 38 -38 33 0
34 -1 34 -40 0 -39 1 -40 34 -40 l34 0 7 -75 7 -75 34 0 34 0 0 -75 0 -75 40
0 40 0 0 -40 c0 -39 1 -40 35 -40 33 0 35 -2 35 -35 0 -33 2 -35 35 -35 34 0
35 -1 35 -40 l0 -40 40 0 40 0 0 -115 0 -115 75 0 75 0 0 -40 0 -40 80 0 80 0
0 -34 c0 -33 1 -33 53 -40 28 -3 78 -6 110 -6 l57 0 0 -35 0 -35 110 0 110 0
0 -34 0 -33 61 -7 c34 -3 86 -6 115 -6 l54 0 0 -34 c0 -33 1 -33 53 -40 28 -3
78 -6 110 -6 l57 0 0 -35 0 -35 80 0 80 0 0 -34 0 -34 75 -7 75 -7 0 -34 0
-34 -115 0 -115 0 0 35 c0 34 -1 35 -40 35 -39 0 -40 -1 -40 -35 0 -33 -2 -35
-35 -35 -33 0 -35 2 -35 34 l0 34 -75 7 -75 7 0 34 0 34 -300 0 -300 0 0 34 0
34 -75 7 -75 7 0 33 0 33 -75 7 -75 7 0 34 c0 33 -1 34 -40 34 l-40 0 0 40 c0
39 -1 40 -34 40 l-34 0 -7 75 -7 75 -34 0 c-32 0 -34 2 -34 34 l0 34 -75 7
-75 7 0 34 0 34 -415 0 -415 0 0 -34 0 -34 -150 -7 -150 -7 0 -34 0 -34 -115
0 -115 0 0 -40 0 -40 -150 0 -150 0 0 -34 0 -34 -75 -7 -75 -7 0 -34 0 -34
-75 0 -75 0 0 -34 0 -34 -75 -7 -75 -7 0 -34 c0 -31 -2 -33 -37 -36 -36 -3
-38 -5 -41 -40 l-3 -38 -75 0 -74 0 0 -40 0 -40 -40 0 c-39 0 -40 -1 -40 -35
0 -33 -2 -35 -35 -35 -34 0 -35 -1 -35 -40 l0 -40 -75 0 -75 0 0 -40 c0 -39
-1 -40 -34 -40 l-34 0 -7 -75 -7 -75 -34 0 c-33 0 -34 -1 -34 -40 0 -39 -1
-40 -34 -40 l-34 0 -7 -70 -7 -70 -34 0 c-34 0 -34 0 -34 -45 0 -45 0 -45 -35
-45 l-35 0 0 -49 c0 -26 -3 -76 -6 -110 l-7 -61 -33 0 -34 0 0 -115 0 -115
-35 0 c-34 0 -35 -1 -35 -40 0 -39 1 -40 35 -40 34 0 35 -1 35 -40 0 -39 -1
-40 -35 -40 l-35 0 0 -115 0 -115 -40 0 c-39 0 -40 -1 -40 -35 0 -34 1 -35 40
-35 39 0 40 1 40 35 0 33 2 35 35 35 l35 0 0 80 0 80 34 0 c33 0 35 2 38 38
l3 37 70 0 c157 1 155 1 155 40 0 33 2 35 34 35 33 0 35 -2 38 -37 3 -36 5
-38 41 -41 35 -3 37 -5 37 -38 l0 -34 115 0 115 0 0 35 0 35 49 0 c26 0 76 3
110 6 l61 7 0 33 0 34 115 0 115 0 0 -35 c0 -33 2 -35 35 -35 33 0 35 2 35 35
l0 35 150 0 150 0 0 40 0 40 40 0 40 0 0 -40 0 -40 40 0 c39 0 40 -1 40 -34
l0 -34 75 -7 75 -7 0 -34 0 -34 150 0 150 0 0 -33 0 -34 164 -6 c91 -4 192 -4
225 0 l61 6 0 -40 0 -41 75 -7 75 -7 0 -34 c0 -33 1 -34 40 -34 39 0 40 -1 40
-34 0 -33 0 -33 58 -39 31 -3 83 -3 115 0 57 6 57 6 57 39 l0 34 70 0 70 0 0
-35 c0 -33 -2 -35 -35 -35 l-35 0 0 -80 0 -80 75 0 75 0 0 -35 c0 -33 -2 -35
-35 -35 l-35 0 0 -80 0 -80 35 0 c33 0 35 -2 35 -35 0 -33 2 -35 35 -35 34 0
35 -1 35 -40 l0 -40 40 0 c39 0 40 -1 40 -35 0 -33 -2 -35 -34 -35 -19 0 -38
-5 -41 -10 -3 -6 -3 -42 1 -80 l7 -70 33 0 c33 0 34 -1 34 -40 0 -39 -1 -40
-35 -40 -33 0 -35 -2 -35 -35 0 -33 2 -35 35 -35 33 0 35 2 35 35 0 33 2 35
35 35 34 0 35 -1 35 -40 0 -39 -1 -40 -35 -40 l-35 0 0 -75 0 -75 34 0 c33 0
33 -1 40 -52 3 -29 6 -79 6 -110 l0 -58 35 0 c34 0 35 -1 35 -40 0 -39 1 -40
35 -40 l35 0 0 -97 c0 -54 3 -122 6 -150 7 -52 8 -53 39 -53 l33 0 7 -155 7
-155 34 0 34 0 0 -75 0 -75 35 0 35 0 0 -59 c0 -32 3 -86 6 -120 l7 -61 -42 0
c-40 0 -41 -1 -41 -35 l0 -35 110 0 110 0 0 -35 c0 -33 -2 -35 -35 -35 -35 0
-35 0 -35 -45 0 -45 0 -45 35 -45 l35 0 0 -75 0 -75 -35 0 c-33 0 -35 -2 -35
-35 0 -33 2 -35 35 -35 34 0 35 -1 35 -40 0 -39 -1 -40 -35 -40 -33 0 -35 -2
-35 -35 0 -33 2 -35 35 -35 l35 0 0 -75 0 -75 -35 0 c-35 0 -35 0 -35 -45 0
-45 0 -45 -35 -45 -33 0 -35 -2 -35 -35 0 -33 2 -35 35 -35 34 0 35 -1 35 -40
0 -39 1 -40 35 -40 34 0 35 -1 35 -40 0 -39 -1 -40 -35 -40 -33 0 -35 -2 -35
-35 0 -33 2 -35 35 -35 33 0 35 -2 35 -35 0 -33 -2 -35 -35 -35 -34 0 -35 -1
-35 -40 0 -39 1 -40 35 -40 34 0 35 -1 35 -40 0 -39 -1 -40 -35 -40 -33 0 -35
-2 -35 -35 0 -33 2 -35 35 -35 l35 0 0 -75 0 -75 -35 0 c-35 0 -35 0 -35 -45
0 -45 0 -45 -35 -45 -33 0 -35 -2 -35 -35 0 -33 2 -35 35 -35 33 0 35 -2 35
-34 0 -33 -2 -35 -37 -38 -37 -3 -38 -4 -41 -45 -3 -42 -4 -43 -38 -43 -32 0
-34 -2 -34 -35 0 -33 2 -35 35 -35 33 0 35 -2 35 -35 0 -33 -2 -35 -35 -35
l-35 0 0 -350 0 -350 35 0 35 0 2 -265 c1 -146 2 -282 3 -302 0 -37 -1 -38
-37 -41 -36 -3 -38 -5 -38 -38 0 -32 2 -34 35 -34 l35 0 0 -306 c0 -286 1
-305 18 -300 9 2 73 20 142 38 l125 33 -62 3 -63 3 0 34 0 35 70 0 70 0 0 -36
c0 -29 3 -34 18 -30 9 2 45 12 80 22 l62 17 0 53 0 54 35 0 c34 0 35 -1 35
-41 0 -41 0 -41 32 -33 89 19 113 30 116 52 3 20 9 22 71 22 58 0 102 12 317
84 137 45 309 105 381 132 l133 49 0 57 0 58 40 0 40 0 0 -41 c0 -37 2 -40 23
-33 71 22 129 48 134 60 3 8 19 14 35 14 16 0 133 44 259 97 177 75 229 101
229 115 0 14 8 18 40 18 26 0 80 19 168 59 229 105 252 118 252 146 0 22 4 25
34 25 19 0 36 -4 38 -10 2 -6 8 -6 18 0 13 8 12 10 -2 10 -16 0 -18 10 -18 75
l0 75 35 0 c33 0 35 -2 35 -35 0 -34 1 -35 41 -35 32 0 40 -3 35 -15 -3 -10
23 -1 74 25 44 22 80 45 80 50 0 6 7 10 15 10 8 0 24 5 37 10 21 10 23 16 20
75 l-4 63 -69 7 -69 7 0 69 0 69 35 0 c35 0 35 0 35 45 0 45 0 45 35 45 33 0
35 2 35 35 l0 35 -110 0 -110 0 0 35 c0 33 2 35 35 35 34 0 35 1 35 40 l0 40
40 0 40 0 0 40 0 40 -40 0 -40 0 0 149 0 149 -70 7 -70 7 0 34 c0 32 2 34 35
34 l35 0 0 75 0 75 -35 0 c-34 0 -35 1 -35 40 l0 40 -40 0 c-39 0 -40 1 -40
35 0 33 2 35 35 35 l35 0 0 80 0 80 -35 0 -35 0 0 110 0 110 -35 0 c-33 0 -35
-2 -35 -35 0 -34 -1 -35 -40 -35 l-40 0 0 -115 0 -115 -40 0 -40 0 0 150 0
150 40 0 40 0 0 40 c0 39 1 40 35 40 l35 0 0 75 0 75 -35 0 c-33 0 -35 -2 -35
-35 0 -34 -1 -35 -40 -35 l-40 0 0 40 0 40 40 0 40 0 0 40 0 40 -40 0 -40 0 0
-40 c0 -39 -1 -40 -34 -40 -33 0 -35 2 -38 37 -3 36 -5 38 -40 41 -36 3 -38 5
-38 38 l0 34 75 0 75 0 0 34 c0 33 -2 35 -37 38 -36 3 -38 5 -41 41 -3 35 -5
37 -38 37 l-34 0 0 75 0 75 -40 0 c-39 0 -40 -1 -40 -35 0 -33 -2 -35 -35 -35
-34 0 -35 1 -35 40 0 39 1 40 34 40 33 0 33 1 39 51 4 29 4 78 0 110 l-6 59
-33 0 c-33 0 -34 1 -34 40 0 39 1 40 34 40 33 0 33 1 40 55 3 30 3 133 -1 230
l-6 175 41 0 42 0 0 190 0 190 35 0 35 0 0 80 0 80 -35 0 c-33 0 -35 2 -35 35
l0 35 75 0 75 0 0 34 c0 33 -2 35 -37 38 -36 3 -38 5 -41 41 l-3 37 40 0 41 0
0 80 0 80 40 0 40 0 0 115 0 115 35 0 34 0 3 73 3 72 38 3 c36 3 37 4 37 43 0
38 -1 39 -35 39 -33 0 -35 2 -35 35 0 33 2 35 35 35 l35 0 0 115 0 115 34 0
34 0 7 75 7 75 34 0 c32 0 34 2 34 35 l0 35 75 0 75 0 0 40 0 39 113 3 112 3
3 38 3 37 75 0 74 0 0 34 c0 33 2 35 38 38 35 3 37 5 40 41 3 35 5 37 38 37
33 0 34 1 34 40 l0 40 109 0 110 0 3 38 3 37 73 3 72 3 0 34 c0 34 1 35 40 35
l40 0 0 -75 0 -75 34 0 c33 0 35 2 38 37 3 36 5 38 41 41 35 3 37 5 37 38 l0
34 75 0 75 0 0 40 0 40 40 0 c39 0 40 1 40 35 l0 35 75 0 75 0 0 40 0 40 75 0
75 0 0 40 0 40 75 0 75 0 0 75 0 75 75 0 75 0 0 35 c0 33 2 35 35 35 34 0 35
1 35 40 l0 40 40 0 40 0 0 40 c0 39 -1 40 -34 40 l-34 0 -7 75 -7 75 -34 0
c-33 0 -34 1 -34 40 l0 40 -75 0 -75 0 0 40 c0 39 -1 40 -35 40 -33 0 -35 2
-35 35 0 34 -1 35 -40 35 l-40 0 0 40 c0 39 -1 40 -34 40 -33 0 -35 2 -38 38
-3 35 -5 37 -40 40 -36 3 -38 5 -38 38 0 33 -1 34 -40 34 -39 0 -40 1 -40 34
l0 34 -75 7 -75 7 0 33 c0 32 -2 34 -37 37 -36 3 -38 5 -41 41 l-3 37 -70 0
-69 0 0 34 0 34 -75 7 -75 7 0 34 0 34 -75 0 -75 0 0 40 0 40 -75 0 -75 0 0
34 0 34 -80 7 -80 7 0 34 0 34 -110 0 -110 0 0 40 0 40 -115 0 -115 0 0 40 0
40 -185 0 -185 0 0 35 c0 34 -1 35 -40 35 -39 0 -40 -1 -40 -35 l0 -35 -75 0
-75 0 0 35 c0 33 2 35 35 35 33 0 35 2 35 35 l0 35 63 0 c34 0 86 3 115 6 l52
7 0 38 c0 38 -1 39 -35 39 -33 0 -35 2 -35 35 l0 35 70 0 70 0 0 35 c0 34 1
35 40 35 l40 0 0 40 0 40 40 0 40 0 0 40 c0 39 1 40 35 40 33 0 35 2 35 34 0
33 2 35 38 38 35 3 37 5 40 41 3 35 5 37 38 37 33 0 34 1 34 40 0 39 1 40 34
40 33 0 35 2 38 38 3 35 5 37 41 40 35 3 37 5 37 38 0 32 2 34 34 34 33 0 35
2 38 38 3 35 5 37 40 40 35 3 37 5 40 40 3 35 5 37 41 40 35 3 37 5 37 38 0
32 2 34 34 34 33 0 35 2 38 38 3 35 5 37 40 40 36 3 38 5 38 38 0 32 2 34 35
34 34 0 35 1 35 40 l0 40 40 0 40 0 0 40 c0 39 1 40 35 40 33 0 35 2 35 35 0
34 1 35 40 35 l40 0 0 40 0 40 40 0 c39 0 40 1 40 35 0 33 2 35 35 35 34 0 35
1 35 40 l0 40 75 0 75 0 0 74 0 74 75 7 75 7 0 34 0 34 80 0 80 0 0 40 c0 39
1 40 35 40 33 0 35 2 35 35 0 34 1 35 40 35 l40 0 0 40 c0 39 1 40 35 40 34 0
35 -1 35 -40 0 -39 1 -40 35 -40 34 0 35 1 35 40 l0 40 40 0 40 0 0 75 0 75
75 0 75 0 0 40 c0 39 -1 40 -35 40 -33 0 -35 2 -35 35 0 33 2 35 35 35 34 0
35 1 35 40 l0 40 75 0 75 0 0 40 0 40 40 0 40 0 0 40 c0 39 1 40 35 40 33 0
35 2 35 35 0 34 1 35 40 35 39 0 40 1 40 35 0 33 2 35 35 35 34 0 35 1 35 40
l0 40 40 0 40 0 0 40 c0 39 1 40 34 40 33 0 35 2 38 38 3 35 5 37 41 40 35 3
37 5 37 38 0 32 2 34 35 34 34 0 35 1 35 40 l0 40 40 0 40 0 0 40 c0 39 1 40
35 40 33 0 35 2 35 35 0 34 1 35 40 35 l40 0 0 40 c0 39 1 40 35 40 34 0 35 1
35 40 0 40 0 40 39 40 l39 0 7 70 7 70 34 0 c33 0 34 1 34 40 0 39 1 40 34 40
l34 0 7 80 7 80 34 0 c32 0 34 2 34 35 l0 35 -75 0 -75 0 0 -75 0 -75 -40 0
c-39 0 -40 1 -40 35 0 33 -2 35 -34 35 l-34 0 -7 -75 -7 -75 -109 0 -109 0 0
-34 0 -34 -75 -7 -75 -7 0 -34 c0 -33 -1 -34 -40 -34 -39 0 -40 -1 -40 -35 0
-33 -2 -35 -35 -35 -34 0 -35 -1 -35 -40 l0 -40 -40 0 c-45 0 -45 1 -34 97 7
52 7 53 40 53 l34 0 0 75 0 75 75 0 75 0 0 75 0 75 34 0 34 0 7 80 7 80 68 0
68 0 7 75 7 75 68 0 68 0 7 80 7 80 34 0 c32 0 34 2 34 35 l0 35 75 0 74 0 3
78 3 77 38 3 c35 3 37 5 37 38 l0 34 75 0 75 0 0 34 c0 33 -2 35 -37 38 -36 3
-38 5 -41 41 l-3 37 80 0 81 0 0 40 0 40 -75 0 -75 0 0 34 c0 33 1 33 53 40
28 3 94 6 145 6 l92 0 0 -40 0 -40 40 0 c39 0 40 1 40 34 0 33 -2 35 -37 38
-36 3 -38 5 -41 41 -3 35 -5 37 -38 37 -32 0 -34 2 -34 34 l0 34 75 7 75 7 0
39 c0 38 -1 39 -35 39 l-35 0 0 75 0 75 35 0 c34 0 35 -1 35 -40 l0 -40 75 0
75 0 0 81 0 80 78 -3 77 -3 -3 78 -3 77 40 0 41 0 0 -40 0 -40 40 0 40 0 0
-54 c0 -29 -3 -81 -6 -115 l-7 -61 -33 0 -34 0 0 -80 0 -80 -35 0 c-33 0 -35
-2 -35 -35 0 -33 2 -35 35 -35 l35 0 0 -75 0 -75 34 0 34 0 7 -75 7 -75 34 0
c33 0 34 -1 34 -40 0 -39 1 -40 34 -40 l33 0 7 -61 c3 -34 6 -86 6 -115 l0
-54 35 0 35 0 0 -115 0 -115 34 0 34 0 7 -155 7 -155 34 0 34 0 0 -115 0 -115
34 0 34 0 7 -150 8 -150 33 0 34 0 0 -150 0 -150 34 0 33 0 7 -61 c3 -34 6
-86 6 -115 l0 -54 35 0 c34 0 35 -1 35 -40 l0 -40 40 0 40 0 0 -40 0 -40 75 0
75 0 0 -34 0 -33 61 -7 c34 -3 84 -6 110 -6 l49 0 0 -35 c0 -34 1 -35 40 -35
l40 0 0 -40 c0 -39 1 -40 35 -40 l35 0 0 -150 0 -150 -70 0 -70 0 0 -40 c0
-39 1 -40 35 -40 l35 0 0 -115 0 -115 -35 0 -35 0 0 -75 0 -75 35 0 35 0 0
-115 0 -115 -34 0 -34 0 -7 -75 -7 -75 -69 0 -69 0 0 -97 c0 -54 -3 -176 -7
-270 l-6 -173 -34 0 -33 0 0 -230 0 -230 -34 0 -34 0 -7 -225 -7 -225 -34 0
-34 0 0 -195 0 -195 -40 0 -40 0 0 -150 0 -150 -34 0 -33 0 -7 -61 c-3 -34 -6
-86 -6 -115 l0 -54 -35 0 -35 0 0 -115 0 -115 -33 0 -34 0 -6 -112 c-4 -62 -7
-148 -7 -190 l0 -78 -35 0 -35 0 0 -150 0 -150 -35 0 -35 0 0 -77 c0 -43 -3
-129 -7 -190 l-6 -113 -34 0 -33 0 0 -120 0 -120 -35 0 -35 0 0 -112 c0 -62
-3 -164 -7 -225 l-6 -113 -34 0 -33 0 0 -190 0 -190 -33 0 -34 0 -6 -122 c-4
-66 -7 -188 -7 -270 l0 -148 -35 0 -35 0 0 -190 0 -190 -34 0 -35 0 -3 -87
c-2 -49 -3 -89 -3 -90 0 -1 46 48 102 110 191 212 433 506 658 803 74 99 139
184 144 190 37 46 269 377 380 544 337 502 635 1013 910 1560 117 231 245 502
281 590 10 25 32 74 48 110 17 36 65 148 107 250 1315 3155 1502 6657 531
9946 -213 721 -515 1505 -829 2156 l-76 157 6 281 6 280 34 0 33 0 0 305 0
305 -75 0 -75 0 0 -75 0 -75 -34 0 -34 0 -7 -75 -7 -75 -34 0 c-33 0 -34 -1
-34 -40 0 -39 -1 -40 -34 -40 l-34 0 -7 -75 -7 -75 -34 0 -34 0 0 -120 0 -120
33 0 34 0 6 -112 c4 -62 7 -146 7 -185 l0 -73 35 0 35 0 0 -270 0 -270 34 0
33 0 7 61 c3 34 6 86 6 115 l0 54 35 0 35 0 0 -230 0 -230 -34 0 -33 0 -7 -61
c-3 -34 -6 -86 -6 -115 l0 -54 -35 0 -35 0 0 -115 0 -115 -34 0 -34 0 -7 -155
-7 -155 -34 0 -34 0 0 -225 0 -225 -40 0 -40 0 0 -115 0 -115 -34 0 -33 0 -7
-61 c-3 -34 -6 -86 -6 -115 l0 -54 -35 0 -35 0 0 -155 0 -155 -34 0 c-33 0
-33 -1 -40 -52 -3 -29 -6 -113 -6 -185 l0 -133 -35 0 -35 0 0 -115 0 -115 -34
0 -33 0 -6 -67 c-4 -38 -7 -92 -7 -120 l0 -53 -35 0 -35 0 0 -150 0 -150 -34
0 -33 0 -7 -61 c-3 -34 -6 -102 -6 -150 l0 -89 -35 0 -35 0 0 -120 0 -120 -34
0 c-33 0 -33 -1 -40 -52 -3 -29 -6 -79 -6 -110 l0 -58 -35 0 -35 0 0 -120 0
-120 -34 0 c-33 0 -33 -1 -40 -52 -3 -29 -6 -79 -6 -110 l0 -58 -35 0 -35 0 0
-80 0 -80 -40 0 -40 0 0 -110 0 -110 -34 0 -34 0 -7 -80 -7 -80 -34 0 -34 0 0
-75 0 -75 -75 0 -75 0 0 -115 0 -115 -110 0 -110 0 0 -35 c0 -33 2 -35 35 -35
l35 0 0 -114 0 -113 -61 -7 c-34 -3 -86 -6 -115 -6 l-54 0 0 40 0 40 40 0 40
0 0 115 0 115 -35 0 c-33 0 -35 -2 -35 -35 0 -34 -1 -35 -40 -35 l-40 0 0 -40
c0 -39 -1 -40 -34 -40 l-34 0 -7 -75 -7 -75 -74 0 -74 0 0 75 0 75 35 0 35 0
0 75 0 75 -35 0 -35 0 0 -75 0 -75 -35 0 -35 0 0 -149 c0 -92 -4 -152 -10
-156 -6 -4 -40 -3 -75 0 l-65 7 0 34 c0 32 2 34 35 34 l35 0 0 115 0 115 -35
0 c-34 0 -35 1 -35 40 0 39 1 40 35 40 33 0 35 2 35 35 0 33 2 35 35 35 33 0
35 2 35 34 l0 34 -69 7 -68 7 -7 51 c-11 96 -11 97 34 97 39 0 40 -1 40 -35
l0 -35 75 0 75 0 0 35 c0 33 -2 35 -35 35 -33 0 -35 2 -35 34 0 19 -5 38 -10
41 -6 3 -42 3 -80 -1 l-70 -7 0 -33 c0 -32 -2 -34 -35 -34 l-35 0 0 75 0 75
35 0 c34 0 35 1 35 40 l0 40 -70 0 -70 0 0 75 0 75 -40 0 -40 0 0 40 c0 39 -1
40 -35 40 l-35 0 0 109 0 108 -61 7 c-34 3 -86 6 -115 6 l-54 0 0 75 0 75 -80
0 -80 0 0 -34 0 -33 -60 -7 c-33 -4 -116 -4 -185 0 l-125 7 0 33 c0 32 -2 34
-35 34 -33 0 -35 -2 -35 -35 l0 -35 -115 0 -115 0 0 35 c0 34 -1 35 -40 35
-39 0 -40 1 -40 34 0 33 -1 33 -52 40 -29 3 -79 6 -110 6 l-58 0 0 34 0 34
-80 7 -80 7 0 34 c0 32 -2 34 -35 34 -33 0 -35 2 -35 35 l0 35 -75 0 -75 0 0
-35 0 -35 -75 0 -75 0 0 34 c0 33 -1 33 -52 40 -29 3 -79 6 -110 6 l-58 0 0
35 0 35 -115 0 -115 0 0 40 0 40 -190 0 -190 0 0 -40 c0 -39 -1 -40 -35 -40
l-35 0 0 54 c0 29 -3 81 -6 115 l-7 61 -73 0 -74 0 0 -35 c0 -33 -2 -35 -35
-35 l-35 0 0 75 0 75 -35 0 c-33 0 -35 2 -35 34 l0 33 -80 7 -80 7 0 35 c0 33
-1 34 -40 34 -39 0 -40 1 -40 35 0 33 -2 35 -35 35 -35 0 -35 0 -35 45 l0 45
110 0 110 0 0 35 0 35 -76 0 -77 0 7 53 c3 28 6 62 6 75 0 19 5 22 35 22 34 0
35 -1 35 -40 0 -39 1 -40 35 -40 34 0 35 1 35 40 l0 40 45 0 c45 0 45 0 45
-35 0 -33 2 -35 35 -35 33 0 35 2 35 35 0 33 -2 35 -35 35 -34 0 -35 1 -35 40
l0 40 76 0 75 0 -3 -77 -3 -78 38 -3 c35 -3 37 -5 37 -38 l0 -34 75 0 75 0 0
-75 0 -75 -75 0 -75 0 0 -40 0 -40 265 0 265 0 0 35 c0 33 2 35 35 35 33 0 35
-2 35 -35 0 -33 2 -35 34 -35 33 0 35 2 38 38 l3 37 153 3 152 3 0 33 0 34
-82 7 c-46 3 -112 5 -148 3 -36 -1 -118 -2 -182 0 l-118 2 0 35 c0 34 -1 35
-40 35 l-40 0 0 115 0 115 -70 0 -70 0 0 35 c0 33 2 35 35 35 l35 0 0 81 0 80
38 -3 c35 -3 37 -5 40 -40 3 -36 5 -38 38 -38 l34 0 0 75 0 75 35 0 c33 0 35
-2 35 -35 0 -34 1 -35 40 -35 39 0 40 1 40 34 l0 33 61 7 c33 4 119 4 190 0
l129 -7 0 -33 c0 -32 2 -34 35 -34 33 0 35 2 35 35 l0 35 75 0 75 0 0 -35 c0
-34 1 -35 40 -35 39 0 40 1 40 35 l0 35 150 0 150 0 0 40 0 40 115 0 115 0 0
34 0 34 75 7 75 7 0 39 c0 38 1 39 35 39 33 0 35 2 35 35 0 34 1 35 40 35 l40
0 0 75 0 75 35 0 c34 0 35 1 35 40 l0 40 -69 0 -69 0 -7 75 -7 75 -149 0 -149
0 0 35 c0 33 -2 35 -35 35 -33 0 -35 -2 -35 -35 l0 -35 -80 0 -80 0 0 35 0 35
-132 0 c-73 0 -157 3 -185 6 -52 7 -53 7 -53 40 0 32 -2 34 -35 34 -33 0 -35
-2 -35 -35 l0 -35 -115 0 -115 0 0 34 0 34 -75 7 -75 7 0 34 0 34 -115 0 -115
0 0 35 c0 33 -2 35 -35 35 -34 0 -35 1 -35 40 l0 39 -77 3 -78 3 -3 72 -3 71
-74 7 -75 7 0 34 c0 32 -2 34 -35 34 l-35 0 0 189 0 190 -37 3 -36 3 1 228 c1
345 -4 307 37 307 34 0 35 1 35 41 l0 40 -37 -3 c-36 -3 -38 -5 -41 -40 -3
-36 -5 -38 -38 -38 l-34 0 0 75 0 75 -75 0 -75 0 -1 43 c-4 133 -4 531 -1 585
l5 62 33 0 34 0 0 225 0 225 -35 0 -35 0 0 80 0 80 35 0 c33 0 35 2 35 35 0
33 -2 35 -35 35 -34 0 -35 1 -35 40 0 39 1 40 34 40 l33 0 6 101 c3 56 3 126
0 155 -6 53 -6 54 -39 54 -33 0 -34 1 -34 40 0 39 1 40 35 40 33 0 35 2 35 35
0 34 1 35 40 35 l40 0 0 115 0 115 75 0 75 0 0 40 c0 39 1 40 35 40 l35 0 0
75 0 75 75 0 75 0 0 34 0 34 224 7 c124 4 261 4 305 0 l81 -7 0 -74 0 -74 40
0 c39 0 40 -1 40 -35 0 -33 2 -35 35 -35 l35 0 0 -75 0 -75 34 0 c34 0 35 -1
38 -42 3 -42 4 -43 41 -46 l37 -3 0 -75 0 -75 38 3 37 3 3 73 3 72 74 0 75 0
0 -35 0 -35 75 0 75 0 0 -35 c0 -33 2 -35 35 -35 34 0 35 -1 35 -40 l0 -40 75
0 75 0 0 -40 c0 -39 -1 -40 -35 -40 -33 0 -35 -2 -35 -35 0 -33 2 -35 35 -35
34 0 35 -1 35 -40 0 -39 -1 -40 -35 -40 -34 0 -35 -1 -35 -40 l0 -40 75 0 75
0 0 -34 c0 -33 2 -35 38 -38 35 -3 37 -5 40 -40 3 -36 5 -38 38 -38 32 0 34
-2 34 -34 0 -33 2 -35 38 -38 35 -3 37 -5 40 -40 l3 -36 70 -7 69 -7 0 -34 c0
-33 1 -34 40 -34 l40 0 0 -40 0 -40 75 0 75 0 0 -75 0 -75 40 0 c39 0 40 -1
40 -35 l0 -35 75 0 75 0 0 -40 0 -40 455 0 455 0 0 35 c0 33 2 35 35 35 34 0
35 1 35 40 l0 40 40 0 40 0 0 75 0 75 35 0 c34 0 35 1 35 40 l0 40 -40 0 c-39
0 -40 -1 -40 -35 0 -33 -2 -35 -35 -35 -33 0 -35 2 -35 35 0 34 -1 35 -40 35
-39 0 -40 1 -40 34 l0 33 -70 7 c-38 4 -74 4 -80 1 -6 -3 -42 -3 -80 1 l-70 7
0 38 c0 38 -1 39 -35 39 l-35 0 0 70 0 70 -155 0 -155 0 0 40 0 40 -69 0 -70
0 -3 -37 c-3 -36 -5 -38 -40 -41 l-38 -3 0 40 0 41 -150 0 -150 0 0 40 0 40
-190 0 -190 0 0 75 0 75 -35 0 c-34 0 -35 1 -35 40 l0 40 -40 0 -40 0 0 75 0
75 75 0 75 0 0 -35 c0 -34 1 -35 40 -35 39 0 40 1 40 35 0 33 2 35 35 35 l35
0 0 75 0 75 40 0 40 0 0 40 0 40 70 0 70 0 0 34 0 34 75 7 75 7 0 34 0 34 80
0 80 0 0 40 0 40 185 0 185 0 0 -80 0 -80 -35 0 c-33 0 -35 -2 -35 -35 0 -33
2 -35 35 -35 l35 0 0 -115 0 -115 40 0 40 0 0 -75 0 -75 40 0 40 0 0 -40 0
-40 75 0 75 0 0 -34 0 -33 98 -5 c53 -3 121 -3 150 -1 51 5 52 6 52 39 0 33 1
34 40 34 l40 0 0 40 c0 39 1 40 35 40 33 0 35 2 35 34 0 33 2 35 38 38 35 3
37 5 40 41 3 35 5 37 38 37 33 0 34 1 34 40 0 39 1 40 34 40 l34 0 7 -82 c3
-46 5 -132 3 -193 l-3 -110 -37 -3 c-36 -3 -38 -5 -38 -38 0 -33 1 -34 40 -34
39 0 40 1 40 35 0 33 2 35 35 35 33 0 35 -2 35 -35 0 -33 2 -35 35 -35 l35 0
0 75 0 75 40 0 c39 0 40 -1 40 -34 l0 -34 75 -7 75 -7 0 -34 c0 -33 1 -34 40
-34 l40 0 0 -40 0 -40 75 0 75 0 0 40 0 40 40 0 40 0 0 75 0 75 35 0 c34 0 35
1 35 40 0 39 -1 40 -35 40 l-35 0 0 94 c0 51 -3 121 -6 155 l-7 61 -33 0 -34
0 0 110 0 110 -35 0 c-34 0 -35 1 -35 40 l0 40 -40 0 -40 0 0 75 0 75 -75 0
-75 0 0 40 0 40 -80 0 -80 0 0 34 0 34 -70 7 -70 7 0 34 0 34 -115 0 -115 0 0
40 0 40 -75 0 -75 0 0 34 c0 33 -2 35 -37 38 -36 3 -38 5 -41 41 -3 36 -4 37
-43 37 -38 0 -39 -1 -39 -35 0 -33 -2 -35 -35 -35 -33 0 -35 2 -35 35 0 33 -2
35 -35 35 l-35 0 0 75 0 75 35 0 c34 0 35 -1 35 -41 l0 -42 53 7 c28 3 62 6
75 6 19 0 22 5 22 35 l0 35 -75 0 -75 0 0 40 0 40 40 0 c39 0 40 1 40 34 l0
33 61 7 c34 3 86 6 115 6 l54 0 0 75 0 75 35 0 c34 0 35 -1 35 -40 l0 -40 110
0 110 0 0 40 c0 39 -1 40 -35 40 -33 0 -35 2 -35 34 l0 34 -75 7 -75 7 0 34 0
34 75 0 75 0 0 -35 c0 -33 2 -35 35 -35 33 0 35 2 35 35 0 33 -2 35 -35 35
-33 0 -35 2 -35 35 l0 35 -75 0 -75 0 0 40 0 40 -110 0 -110 0 0 -35 0 -35
-115 0 -115 0 0 41 0 42 -61 -7 c-34 -3 -86 -6 -115 -6 l-54 0 0 -35 c0 -33
-2 -35 -35 -35 -34 0 -35 1 -35 40 0 39 1 40 35 40 33 0 35 2 35 35 l0 35 -75
0 -75 0 0 -35 0 -35 -185 0 -185 0 0 35 0 35 -155 0 -155 0 0 -34 c0 -33 -1
-33 -52 -40 -29 -3 -81 -6 -115 -6 l-63 0 0 -34 0 -34 -70 -7 -70 -7 0 -34 c0
-33 -1 -34 -40 -34 -39 0 -40 1 -40 35 0 33 -2 35 -35 35 -33 0 -35 -2 -35
-35 0 -34 -1 -35 -40 -35 -39 0 -40 1 -40 35 0 34 -1 35 -40 35 l-40 0 0 40
c0 39 -1 40 -34 40 l-34 0 -7 -75 -7 -75 -34 0 -34 0 0 75 c0 71 -1 75 -22 75
-13 0 -47 3 -75 6 l-53 7 0 -82 0 -81 -75 0 -75 0 0 74 0 73 -52 7 c-104 12
-98 17 -98 -74 l0 -80 -150 0 -150 0 0 40 c0 39 1 40 35 40 33 0 35 2 35 34 0
33 -2 35 -37 38 -36 3 -38 5 -41 41 l-3 37 -75 0 -74 0 0 35 0 35 -69 0 -69 0
-7 -69 -7 -68 -51 -7 c-29 -3 -78 -6 -109 -6 l-58 0 0 40 0 40 -75 0 -75 0 0
34 0 34 -75 7 -75 7 0 34 c0 33 -1 34 -40 34 l-40 0 0 -41 0 -42 -52 7 c-29 3
-63 6 -75 6 -20 0 -23 5 -23 35 l0 35 -75 0 -75 0 0 40 0 40 -110 0 -110 0 0
34 0 34 -80 7 -80 7 0 34 c0 32 -2 34 -35 34 l-35 0 0 -75 0 -75 -34 0 -33 0
-7 61 c-3 34 -6 86 -6 115 l0 54 -35 0 -35 0 0 -75 0 -75 -40 0 c-39 0 -40 1
-40 35 0 33 -2 35 -35 35 l-35 0 0 115 0 115 -40 0 -40 0 0 -75 0 -75 -35 0
c-40 0 -39 -9 -39 190 l-1 115 -75 0 -75 0 -3 71 -3 72 76 7 75 7 0 74 0 74
40 0 40 0 0 40 c0 39 1 40 35 40 33 0 35 2 35 35 0 33 -2 35 -35 35 -34 0 -35
1 -35 40 0 39 1 40 35 40 33 0 35 2 35 35 0 33 -2 35 -35 35 l-35 0 0 155 0
155 35 0 c33 0 35 -2 35 -35 l0 -35 80 0 80 0 0 35 c0 34 1 35 40 35 l40 0 0
75 0 75 -40 0 -40 0 0 -75 0 -75 -40 0 c-39 0 -40 1 -40 35 0 33 -2 35 -35 35
-34 0 -35 1 -35 40 0 39 1 40 35 40 34 0 35 1 35 40 l0 40 80 0 80 0 0 115 0
115 35 0 c33 0 35 2 35 34 l0 34 -75 7 -75 7 0 68 0 69 38 3 c35 3 37 5 40 40
l3 36 70 7 69 7 0 34 c0 32 -2 34 -35 34 l-35 0 0 75 0 75 -75 0 -75 0 0 75 0
75 75 0 75 0 0 80 0 80 -35 0 c-34 0 -35 -1 -35 -40 l0 -40 -40 0 -40 0 0 75
0 75 75 0 75 0 0 40 c0 39 1 40 35 40 l35 0 0 75 0 75 -35 0 c-34 0 -35 -1
-35 -41 l0 -42 -52 7 c-29 3 -63 6 -75 6 -19 0 -23 5 -23 34 0 33 2 35 38 38
35 3 37 5 40 41 3 35 5 37 38 37 33 0 34 1 34 40 0 39 -1 40 -35 40 -34 0 -35
-1 -35 -40 l0 -40 -80 0 -80 0 0 80 0 80 -35 0 -35 0 0 75 0 75 35 0 c34 0 35
-1 35 -40 l0 -40 40 0 40 0 0 75 0 75 40 0 c39 0 40 -1 40 -35 l0 -35 70 0 70
0 0 35 c0 33 -2 35 -35 35 l-35 0 0 74 0 75 38 3 c35 3 37 5 40 41 l3 37 110
0 109 0 0 35 c0 33 2 35 35 35 33 0 35 -2 35 -35 0 -34 1 -35 40 -35 l40 0 0
40 c0 39 -1 40 -35 40 l-35 0 0 75 0 75 35 0 35 0 0 115 0 115 34 0 c33 0 35
-2 38 -37 3 -36 5 -38 41 -41 l37 -3 0 -75 0 -74 35 0 35 0 0 75 0 75 -35 0
-35 0 0 81 0 80 38 -3 c35 -3 37 -5 40 -40 3 -37 4 -38 43 -38 l39 0 0 75 0
75 110 0 110 0 0 -41 0 -42 53 7 c28 3 80 6 115 6 l62 0 0 35 0 35 -80 0 -80
0 0 74 0 74 75 7 75 7 0 34 c0 32 -2 34 -35 34 -33 0 -35 2 -35 35 0 33 -2 35
-34 35 l-34 0 -7 -70 -7 -70 -34 0 -34 0 0 69 0 70 38 3 c36 3 37 4 40 46 3
41 4 42 38 42 l34 0 0 69 0 70 -37 3 c-37 3 -38 4 -41 46 -3 41 -4 42 -38 42
-32 0 -34 2 -34 35 l0 35 75 0 75 0 0 34 c0 33 -2 35 -37 38 -36 3 -38 5 -41
41 -3 35 -5 37 -38 37 -33 0 -34 1 -34 40 l0 40 115 0 115 0 0 -40 c0 -39 1
-40 35 -40 l35 0 0 75 0 75 40 0 c39 0 40 -1 40 -35 l0 -35 76 0 76 0 -7 75
-7 75 41 0 41 0 0 -40 c0 -39 1 -40 35 -40 33 0 35 -2 35 -35 0 -35 0 -35 45
-35 l45 0 0 -40 c0 -39 1 -40 35 -40 34 0 35 1 35 40 l0 40 150 0 150 0 0 -40
0 -40 225 0 225 0 0 -34 c0 -33 0 -33 58 -39 31 -3 83 -3 115 0 l57 6 0 -42
c0 -40 1 -41 35 -41 33 0 35 2 35 35 0 34 1 35 40 35 39 0 40 -1 40 -35 l0
-35 190 0 190 0 0 -35 c0 -33 2 -35 35 -35 34 0 35 -1 35 -40 l0 -40 40 0 c39
0 40 1 40 35 l0 35 75 0 75 0 0 -35 c0 -33 -2 -35 -35 -35 -34 0 -35 -1 -35
-40 0 -39 1 -40 35 -40 34 0 35 1 35 41 l0 42 53 -7 c28 -3 62 -6 75 -6 19 0
22 -5 22 -35 l0 -35 75 0 75 0 0 -40 0 -40 75 0 75 0 0 -34 0 -34 75 -7 75 -7
0 -34 0 -34 75 0 75 0 0 -40 0 -40 80 0 80 0 0 -35 c0 -33 2 -35 35 -35 34 0
35 -1 35 -40 l0 -40 40 0 c39 0 40 -1 40 -35 l0 -34 73 -3 72 -3 3 -37 3 -38
110 0 109 0 0 -40 c0 -39 1 -40 34 -40 l34 0 7 -75 7 -75 68 0 68 0 7 -75 7
-75 34 0 c33 0 34 -1 34 -40 l0 -40 40 0 40 0 0 -40 c0 -39 1 -40 35 -40 33 0
35 -2 35 -35 0 -33 -2 -35 -35 -35 -34 0 -35 -1 -35 -40 l0 -40 40 0 c39 0 40
-1 40 -35 0 -33 2 -35 35 -35 l35 0 0 -120 0 -120 34 0 c33 0 33 -1 40 -52 3
-29 6 -97 6 -150 l0 -98 35 0 c34 0 35 -1 35 -41 l0 -41 75 7 75 7 0 -41 c0
-40 -1 -41 -35 -41 -34 0 -35 -1 -35 -40 0 -39 1 -40 35 -40 33 0 35 -2 35
-35 0 -33 2 -35 35 -35 33 0 35 2 35 35 0 33 -2 35 -35 35 -34 0 -35 1 -35 40
0 39 1 40 34 40 33 0 35 2 38 38 3 35 5 37 41 40 l37 3 0 -120 0 -121 -40 0
c-39 0 -40 -1 -40 -35 0 -34 1 -35 40 -35 39 0 40 1 40 35 l0 35 75 0 75 0 0
-35 c0 -34 -1 -35 -40 -35 -45 0 -45 -1 -34 -97 l7 -53 73 0 74 0 0 -40 c0
-39 1 -40 35 -40 34 0 35 1 35 40 0 39 -1 40 -35 40 -34 0 -35 1 -35 40 0 39
1 40 35 40 l35 0 0 150 0 150 -35 0 c-33 0 -35 2 -35 35 0 33 2 35 35 35 l35
0 0 195 0 195 -35 0 -35 0 0 300 0 300 35 0 c34 0 35 1 35 40 0 39 -1 40 -34
40 -19 0 -38 4 -41 10 -3 5 -3 127 1 270 l7 260 34 0 33 0 0 270 0 270 -35 0
c-33 0 -35 2 -35 35 0 33 2 35 35 35 l35 0 0 75 0 75 -34 0 -34 0 -7 75 -7 75
-34 0 -34 0 0 155 0 155 -40 0 -40 0 0 115 0 115 -35 0 c-33 0 -35 2 -35 34 0
33 -2 35 -37 38 -36 3 -38 5 -41 41 -3 35 -5 37 -38 37 -33 0 -34 1 -34 40 0
39 -1 40 -34 40 l-33 0 -7 61 c-3 34 -6 84 -6 110 l0 49 -35 0 c-34 0 -35 1
-35 39 l0 39 -75 7 -75 7 0 114 0 114 -35 0 c-33 0 -35 2 -35 35 0 34 -1 35
-40 35 l-40 0 0 75 0 75 -40 0 -40 0 0 80 0 80 -34 0 -34 0 -7 75 -7 75 -34 0
-34 0 0 110 0 110 -75 0 -75 0 0 40 c0 39 -1 40 -35 40 -34 0 -35 1 -35 40 0
39 1 40 35 40 l35 0 0 75 0 75 -35 0 c-34 0 -35 1 -35 40 l0 40 -40 0 c-39 0
-40 1 -40 35 l0 35 -75 0 -75 0 0 40 0 40 -75 0 -75 0 0 -34 c0 -33 0 -33 -57
-39 -32 -3 -84 -3 -115 0 -58 6 -58 6 -58 39 0 32 -2 34 -34 34 l-34 0 -7 75
-7 75 -34 0 c-33 0 -34 1 -34 40 l0 40 -40 0 c-39 0 -40 1 -40 35 0 33 -2 35
-35 35 -34 0 -35 1 -35 39 l0 39 -75 7 -75 7 0 34 c0 32 -2 34 -35 34 -33 0
-35 2 -35 35 0 34 -1 35 -40 35 l-40 0 0 40 0 40 -75 0 -75 0 0 40 0 40 -40 0
c-39 0 -40 1 -40 35 l0 35 -75 0 -75 0 0 40 0 40 -150 0 -150 0 0 40 0 40
-150 0 -150 0 0 35 c0 33 -2 35 -35 35 -33 0 -35 -2 -35 -35 l0 -35 -80 0 -80
0 0 35 0 35 -75 0 -75 0 0 40 0 40 -40 0 c-39 0 -40 1 -40 34 l0 34 -69 7 -69
7 -7 74 -7 74 -34 0 c-32 0 -34 2 -34 34 0 33 -2 35 -37 38 -36 3 -38 5 -41
41 l-3 37 -75 0 -74 0 0 40 0 40 -70 0 -70 0 0 34 0 33 -80 7 -80 7 0 35 c0
33 -1 34 -40 34 -39 0 -40 -1 -40 -35 l0 -35 -49 0 c-26 0 -76 -3 -110 -6
l-61 -7 0 -33 0 -34 -115 0 -115 0 0 35 0 35 -70 0 -70 0 0 -35 0 -35 -74 0
-75 0 -3 38 c-3 35 -5 37 -40 40 l-36 3 -7 75 -7 74 -34 0 c-32 0 -34 2 -34
34 0 33 -2 35 -37 38 -36 3 -38 5 -41 41 l-3 37 -70 0 -69 0 0 -34 0 -34 -75
-7 -75 -7 0 -34 0 -34 -80 0 -80 0 0 35 c0 33 -2 35 -35 35 -33 0 -35 -2 -35
-35 0 -33 -2 -35 -34 -35 l-34 0 -7 75 -7 75 -189 0 -189 0 0 35 0 35 -145 0
-145 0 0 -35 0 -35 -190 0 -190 0 0 -33 0 -34 -172 -6 c-95 -4 -266 -7 -380
-7 l-208 0 0 -35 0 -35 -225 0 -225 0 0 -40 0 -40 -75 0 -75 0 0 -34 0 -33
-61 -7 c-34 -3 -84 -6 -110 -6 l-49 0 0 -35 0 -35 -80 0 -80 0 0 -40 0 -40
-110 0 -110 0 0 -34 0 -34 -75 -7 -75 -7 0 -34 0 -34 -80 0 -80 0 0 -34 0 -34
-70 -7 -70 -7 0 -33 0 -33 -75 -7 -75 -7 0 -34 c0 -33 -1 -34 -40 -34 -39 0
-40 -1 -40 -34 l0 -34 -75 -7 -75 -7 0 -34 0 -34 -63 0 -62 0 -8350 8350
-8350 8350 -8652 0 -8653 0 0 -12293z m41820 -6357 c0 -39 -1 -40 -35 -40 -34
0 -35 1 -35 40 0 39 1 40 35 40 34 0 35 -1 35 -40z m-2640 -1455 c0 -34 -1
-35 -40 -35 -39 0 -40 1 -40 35 0 34 1 35 40 35 39 0 40 -1 40 -35z m-150
-150 c0 -33 -2 -35 -35 -35 -33 0 -35 2 -35 35 0 33 2 35 35 35 33 0 35 -2 35
-35z m-310 -75 c0 -39 -1 -40 -35 -40 -34 0 -35 1 -35 40 0 39 1 40 35 40 34
0 35 -1 35 -40z m310 -80 c0 -45 -1 -45 -97 -34 -52 7 -53 7 -53 40 l0 34 75
0 75 0 0 -40z m1880 5 c0 -33 -2 -35 -35 -35 -33 0 -35 2 -35 35 0 33 2 35 35
35 33 0 35 -2 35 -35z m2720 -80 c0 -33 -2 -35 -35 -35 -33 0 -35 2 -35 35 0
33 2 35 35 35 33 0 35 -2 35 -35z m-5060 -190 l0 -75 -35 0 -35 0 0 75 0 75
35 0 35 0 0 -75z m460 40 c0 -33 -2 -35 -35 -35 -33 0 -35 2 -35 35 0 33 2 35
35 35 33 0 35 -2 35 -35z m-230 -80 c0 -33 -2 -35 -35 -35 -33 0 -35 2 -35 35
0 33 2 35 35 35 33 0 35 -2 35 -35z m-150 -70 c0 -33 -2 -35 -35 -35 -33 0
-35 2 -35 35 0 33 2 35 35 35 33 0 35 -2 35 -35z m380 -5 c0 -39 -1 -40 -35
-40 -34 0 -35 1 -35 40 0 39 1 40 35 40 34 0 35 -1 35 -40z m-150 -190 l0 -70
-35 0 -35 0 0 70 0 70 35 0 35 0 0 -70z m5050 35 c0 -33 -2 -35 -35 -35 -33 0
-35 2 -35 35 0 33 2 35 35 35 33 0 35 -2 35 -35z m-5210 -150 c0 -33 -2 -35
-35 -35 -33 0 -35 2 -35 35 0 33 2 35 35 35 33 0 35 -2 35 -35z m-220 -230 c0
-33 -2 -35 -35 -35 -33 0 -35 2 -35 35 0 33 2 35 35 35 33 0 35 -2 35 -35z
m-150 -380 c0 -45 0 -45 -35 -45 -35 0 -35 0 -35 45 0 45 0 45 35 45 35 0 35
0 35 -45z m-300 -109 l0 -75 -37 -3 c-36 -3 -38 -5 -41 -40 -3 -36 -5 -38 -38
-38 l-34 0 0 109 0 110 43 4 c23 2 57 4 75 5 l32 2 0 -74z m-380 -351 c0 -33
-2 -35 -35 -35 -33 0 -35 2 -35 35 0 33 2 35 35 35 33 0 35 -2 35 -35z m6260
-70 l0 -35 -75 0 -75 0 0 35 0 35 75 0 75 0 0 -35z m-6340 -75 c0 -39 -1 -40
-35 -40 -34 0 -35 1 -35 40 0 39 1 40 35 40 34 0 35 -1 35 -40z m6190 -5 c0
-33 -2 -35 -35 -35 -33 0 -35 2 -35 35 0 33 2 35 35 35 33 0 35 -2 35 -35z
m-5960 -535 c0 -39 -1 -40 -35 -40 -34 0 -35 1 -35 40 0 39 1 40 35 40 34 0
35 -1 35 -40z m-150 -385 c0 -33 -2 -35 -35 -35 -33 0 -35 2 -35 35 0 33 2 35
35 35 33 0 35 -2 35 -35z m-80 -137 c0 -13 3 -47 6 -75 l7 -53 -42 0 -41 0 0
75 0 75 35 0 c30 0 35 -3 35 -22z m230 -163 c0 -34 1 -35 40 -35 l40 0 0 -40
0 -40 -40 0 -40 0 0 40 c0 39 -1 40 -35 40 -33 0 -35 2 -35 35 0 33 2 35 35
35 33 0 35 -2 35 -35z m-150 -230 c0 -33 -2 -35 -35 -35 -33 0 -35 2 -35 35 0
33 2 35 35 35 33 0 35 -2 35 -35z m-76 -653 c3 -5 2 -59 -1 -120 l-6 -112 -33
0 c-32 0 -34 -2 -34 -35 0 -33 -2 -35 -35 -35 -33 0 -35 2 -35 35 0 33 2 35
35 35 l35 0 0 120 0 120 34 0 c19 0 37 -4 40 -8z m676 -1182 c0 -39 -1 -40
-35 -40 -34 0 -35 1 -35 40 0 39 1 40 35 40 34 0 35 -1 35 -40z m230 -75 c0
-33 -2 -35 -35 -35 -33 0 -35 2 -35 35 0 33 2 35 35 35 33 0 35 -2 35 -35z
m300 -150 c0 -33 -2 -35 -35 -35 -33 0 -35 2 -35 35 0 33 2 35 35 35 33 0 35
-2 35 -35z m230 -5 c0 -39 -1 -40 -35 -40 -34 0 -35 1 -35 40 0 39 1 40 35 40
34 0 35 -1 35 -40z m-2720 -765 c0 -33 -2 -35 -35 -35 -33 0 -35 2 -35 35 0
33 2 35 35 35 33 0 35 -2 35 -35z m80 -300 c0 -30 -3 -35 -22 -35 -13 0 -47
-3 -75 -6 l-53 -7 0 42 0 41 75 0 75 0 0 -35z m-610 -174 c0 -70 3 -156 6
-190 l7 -61 33 0 34 0 0 -75 0 -75 40 0 c39 0 40 -1 40 -34 0 -33 2 -35 38
-38 35 -3 37 -5 40 -40 3 -36 5 -38 38 -38 33 0 34 -1 34 -40 l0 -40 75 0 75
0 0 35 c0 33 2 35 34 35 l34 0 7 -70 7 -70 34 0 c32 0 34 2 34 35 0 34 1 35
40 35 39 0 40 1 40 35 0 33 2 35 35 35 33 0 35 -2 35 -35 l0 -35 415 0 415 0
0 35 c0 33 2 35 35 35 l35 0 0 -75 0 -75 40 0 c39 0 40 -1 40 -35 l0 -35 -75
0 -75 0 0 -40 c0 -39 -1 -40 -35 -40 -34 0 -35 1 -35 40 0 39 1 40 35 40 34 0
35 1 35 40 l0 40 -207 0 c-115 0 -286 -3 -380 -7 l-173 -6 0 -34 c0 -31 -2
-33 -35 -33 -33 0 -35 2 -35 35 0 34 -1 35 -40 35 -39 0 -40 -1 -40 -35 l0
-35 -185 0 -185 0 0 75 0 75 -34 0 -34 0 -7 -75 -7 -75 -74 0 -74 0 0 35 c0
34 1 35 40 35 l40 0 0 40 0 40 -40 0 c-39 0 -40 -1 -40 -35 0 -34 -1 -35 -40
-35 -39 0 -40 1 -40 35 l0 35 -185 0 -185 0 0 40 c0 39 -1 40 -34 40 -33 0
-35 2 -38 38 -3 35 -5 37 -40 40 l-38 3 0 68 0 69 -75 7 -75 7 0 74 0 74 40 0
40 0 0 40 c0 39 1 40 35 40 33 0 35 2 35 35 l0 35 75 0 75 0 0 40 0 40 75 0
75 0 0 35 0 35 110 0 110 0 0 -129z m6940 -211 l0 -40 40 0 40 0 0 -75 0 -75
-34 0 -34 0 -7 75 -7 75 -34 0 c-33 0 -34 1 -34 40 0 39 1 40 35 40 34 0 35
-1 35 -40z m-5800 -115 l0 -75 75 0 75 0 0 -75 0 -75 -40 0 c-39 0 -40 1 -40
35 l0 34 -112 3 -113 3 -3 38 -3 37 40 0 41 0 0 75 0 75 40 0 40 0 0 -75z
m375 -615 c4 -44 4 -111 0 -150 l-7 -70 -69 0 -69 0 0 35 0 35 -75 0 -75 0 0
40 0 40 75 0 75 0 0 35 c0 33 2 35 35 35 34 0 35 1 35 40 0 39 1 40 34 40 l34
0 7 -80z m3615 45 l0 -35 -75 0 -75 0 0 35 0 35 75 0 75 0 0 -35z m-3920 -236
l0 -41 75 7 75 7 0 -81 0 -81 -35 0 -35 0 0 -75 0 -75 -40 0 c-39 0 -40 1 -40
35 0 33 -2 35 -35 35 l-35 0 0 -69 0 -69 -75 -7 -75 -7 0 -34 c0 -33 -1 -34
-40 -34 l-40 0 0 40 0 40 40 0 40 0 0 70 0 70 35 0 c34 0 35 1 35 39 l0 39 75
7 75 7 0 69 0 69 -35 0 c-34 0 -35 1 -35 40 0 39 1 40 35 40 34 0 35 -1 35
-41z m4900 -74 c0 -33 -2 -35 -35 -35 -33 0 -35 2 -35 35 0 33 2 35 35 35 33
0 35 -2 35 -35z m-5120 -70 c0 -34 -1 -35 -40 -35 -39 0 -40 1 -40 35 0 34 1
35 40 35 39 0 40 -1 40 -35z m5350 0 l0 -35 -75 0 -75 0 0 35 0 35 75 0 75 0
0 -35z m70 -80 c0 -33 -2 -35 -35 -35 -33 0 -35 2 -35 35 0 33 2 35 35 35 33
0 35 -2 35 -35z m-5650 -80 c0 -33 -2 -35 -35 -35 -33 0 -35 2 -35 35 0 33 2
35 35 35 33 0 35 -2 35 -35z m0 -260 l0 -75 -35 0 -35 0 0 75 0 75 35 0 35 0
0 -75z m680 35 c0 -39 -1 -40 -35 -40 -33 0 -35 -2 -35 -35 0 -34 -1 -35 -40
-35 l-40 0 0 75 0 75 75 0 75 0 0 -40z m4370 0 c0 -39 -1 -40 -35 -40 -34 0
-35 1 -35 40 0 39 1 40 35 40 34 0 35 -1 35 -40z m-4670 -80 l0 -40 -40 0 -40
0 0 40 0 40 40 0 40 0 0 -40z m-310 -305 c0 -33 -2 -35 -35 -35 -33 0 -35 2
-35 35 0 33 2 35 35 35 33 0 35 -2 35 -35z m310 -35 l0 -70 -40 0 -40 0 0 70
0 70 40 0 40 0 0 -70z m-460 -110 c0 -39 -1 -40 -35 -40 -34 0 -35 1 -35 40 0
39 1 40 35 40 34 0 35 -1 35 -40z m308 -82 c3 -36 5 -38 38 -38 32 0 34 -2 34
-35 0 -34 1 -35 40 -35 l40 0 0 70 0 70 35 0 35 0 0 -70 0 -70 -35 0 -35 0 0
-80 0 -80 -40 0 -40 0 0 -150 0 -150 -75 0 -75 0 0 -120 0 -120 -75 0 -75 0 0
-70 0 -70 35 0 c31 0 35 -3 35 -27 0 -16 3 -52 6 -80 l7 -53 -157 0 -156 0 0
35 c0 33 -2 35 -35 35 -34 0 -35 1 -35 40 0 39 -1 40 -35 40 l-35 0 0 -75 0
-75 35 0 c33 0 35 -2 35 -34 l0 -34 75 -7 75 -7 0 -74 0 -74 35 0 c34 0 35 1
35 40 l0 40 80 0 80 0 0 -40 0 -40 -40 0 c-39 0 -40 -1 -40 -35 l0 -35 75 0
75 0 0 75 0 75 150 0 150 0 0 -40 0 -40 -75 0 -75 0 0 -40 0 -40 40 0 c39 0
40 -1 40 -35 0 -34 -1 -35 -40 -35 l-40 0 0 -149 0 -149 -75 -7 -75 -7 0 -39
c0 -44 -1 -44 -97 -33 l-53 7 0 113 0 114 -35 0 -35 0 0 58 c0 31 -3 80 -6
109 l-7 51 -68 7 -69 7 0 34 c0 33 -1 34 -40 34 l-40 0 0 -75 0 -75 75 0 75 0
0 -80 0 -80 35 0 c27 0 35 -4 35 -17 0 -10 3 -42 6 -70 l7 -53 -42 0 -41 0 0
70 0 70 -35 0 c-35 0 -35 0 -35 45 l0 45 -40 0 c-39 0 -40 1 -40 35 0 34 -1
35 -40 35 l-40 0 0 40 c0 39 -1 40 -35 40 -33 0 -35 2 -35 35 0 33 2 35 35 35
l35 0 0 80 0 80 -35 0 -35 0 0 115 0 115 -73 0 -74 0 -6 103 c-3 56 -3 123 0
150 l6 47 39 0 c39 0 39 0 36 38 -3 36 -4 37 -45 40 -42 3 -43 4 -43 38 l0 34
80 0 80 0 0 40 0 40 -41 0 -40 0 3 38 c3 35 5 37 41 40 35 3 37 5 37 38 l0 34
-75 0 -75 0 0 40 0 40 109 0 110 0 3 38 c3 35 5 37 41 40 35 3 37 5 37 38 0
33 1 34 40 34 39 0 40 1 40 35 0 33 2 35 35 35 l35 0 0 -75 c0 -85 -6 -81 98
-69 51 7 52 7 52 40 0 33 1 34 40 34 39 0 40 -1 40 -35 0 -33 2 -35 35 -35
l35 0 0 76 0 75 38 -3 c35 -3 37 -5 40 -40z m-1138 -228 c0 -39 -1 -40 -35
-40 -34 0 -35 1 -35 40 0 39 1 40 35 40 34 0 35 -1 35 -40z m300 -75 c0 -33
-2 -35 -35 -35 -33 0 -35 2 -35 35 0 33 2 35 35 35 33 0 35 -2 35 -35z m-70
-80 c0 -34 -1 -35 -40 -35 -39 0 -40 1 -40 35 0 34 1 35 40 35 39 0 40 -1 40
-35z m0 -150 c0 -33 -2 -35 -35 -35 -33 0 -35 2 -35 35 0 33 2 35 35 35 33 0
35 -2 35 -35z m0 -270 l0 -75 -35 0 -35 0 0 75 0 75 35 0 35 0 0 -75z m160
-420 c0 -35 0 -35 -45 -35 -45 0 -45 0 -45 35 0 35 0 35 45 35 45 0 45 0 45
-35z m2250 -150 c0 -34 1 -35 40 -35 l40 0 0 -74 0 -75 -37 -3 c-37 -3 -38 -4
-41 -45 -3 -42 -4 -43 -38 -43 -32 0 -34 -2 -34 -35 0 -33 -2 -35 -35 -35 -33
0 -35 2 -35 34 l0 34 -155 7 -155 7 0 33 0 33 -75 7 -75 7 0 109 0 109 300 0
300 0 0 -35z m-2110 -235 l0 -40 40 0 c39 0 40 -1 40 -35 l0 -35 -75 0 -75 0
0 75 0 75 35 0 c34 0 35 -1 35 -40z m3100 -1145 c0 -34 -1 -35 -40 -35 l-40 0
0 -75 0 -75 35 0 c34 0 35 -1 35 -40 l0 -40 -69 0 -68 0 -7 61 c-3 34 -6 86
-6 115 l0 54 40 0 c39 0 40 1 40 35 0 34 1 35 40 35 39 0 40 -1 40 -35z m-230
-110 l0 -75 -34 0 c-33 0 -33 1 -40 53 -11 96 -11 97 34 97 l40 0 0 -75z
m-680 -420 c0 -33 -2 -35 -35 -35 -33 0 -35 2 -35 35 0 33 2 35 35 35 33 0 35
-2 35 -35z m-830 -1449 c0 -33 2 -35 38 -38 35 -3 37 -5 40 -40 3 -36 5 -38
38 -38 33 0 34 1 34 40 0 39 1 40 35 40 33 0 35 2 35 35 l0 35 80 0 80 0 0
-40 c0 -39 1 -40 35 -40 34 0 35 1 35 40 l0 40 305 0 305 0 0 -35 0 -35 260 0
260 0 0 35 0 35 795 0 795 0 0 -35 0 -35 115 0 115 0 0 35 c0 33 2 35 35 35
l35 0 0 -75 0 -75 40 0 c39 0 40 1 40 35 l0 35 69 0 69 0 7 -70 c4 -39 4 -106
0 -150 l-7 -80 -68 0 -69 0 -3 -37 c-3 -36 -5 -38 -40 -41 -36 -3 -38 -5 -38
-37 l0 -33 -75 -7 -75 -7 0 -34 0 -34 -115 0 -115 0 0 -40 c0 -39 -1 -40 -35
-40 -33 0 -35 -2 -35 -35 l0 -35 -75 0 -75 0 0 -40 0 -40 -80 0 -80 0 0 -35
c0 -33 -2 -35 -35 -35 -33 0 -35 2 -35 35 l0 35 -110 0 -110 0 0 -35 0 -35
-155 0 -155 0 0 35 c0 34 -1 35 -40 35 l-40 0 0 40 0 40 -75 0 -75 0 0 -75 0
-75 -35 0 c-33 0 -35 2 -35 35 0 33 -2 35 -35 35 -34 0 -35 1 -35 40 l0 40
-40 0 -40 0 0 -40 c0 -39 -1 -40 -35 -40 l-35 0 0 75 0 75 -40 0 -40 0 0 40
c0 39 -1 40 -35 40 l-35 0 0 -75 0 -75 -40 0 -40 0 0 41 0 42 -52 -7 c-29 -3
-63 -6 -75 -6 -19 0 -22 -7 -28 -75 l-7 -75 -34 0 c-33 0 -34 1 -34 40 l0 40
-75 0 -75 0 0 35 c0 34 -1 35 -40 35 l-40 0 0 40 c0 39 -1 40 -35 40 -33 0
-35 -2 -35 -35 0 -34 -1 -35 -40 -35 -39 0 -40 1 -40 35 l0 35 -150 0 -150 0
0 34 0 34 -75 7 -75 7 0 39 c0 38 -1 39 -34 39 l-34 0 -7 70 -7 69 -71 3 -72
3 -3 37 -3 37 -72 3 -72 3 -3 38 -3 37 -69 0 -69 0 -3 38 c-3 35 -5 37 -40 40
-36 3 -38 5 -38 38 l0 34 150 0 150 0 0 -34z m4600 -541 c0 -33 -2 -35 -35
-35 -33 0 -35 2 -35 35 0 33 2 35 35 35 33 0 35 -2 35 -35z m-1060 -150 c0
-33 -2 -35 -35 -35 -34 0 -35 -1 -35 -40 0 -39 -1 -40 -35 -40 -34 0 -35 1
-35 40 0 39 1 40 35 40 33 0 35 2 35 35 0 33 2 35 35 35 33 0 35 -2 35 -35z
m230 0 c0 -33 -2 -35 -35 -35 -33 0 -35 2 -35 35 0 33 2 35 35 35 33 0 35 -2
35 -35z m-9200 -1070 c0 -33 -2 -35 -35 -35 -33 0 -35 2 -35 35 0 33 2 35 35
35 33 0 35 -2 35 -35z m8220 -530 c0 -34 -1 -35 -40 -35 -39 0 -40 1 -40 35 0
34 1 35 40 35 39 0 40 -1 40 -35z m-372 -77 l3 -38 -80 0 -81 0 0 34 c0 34 2
35 43 39 23 2 58 4 77 3 33 -1 35 -3 38 -38z m150 0 c3 -36 5 -38 38 -38 33 0
34 -1 34 -40 l0 -40 -75 0 -75 0 0 -41 0 -41 75 7 75 7 0 -41 c0 -40 -1 -41
-35 -41 -34 0 -35 -1 -35 -40 l0 -40 -40 0 -40 0 0 75 c0 71 -1 75 -22 75 -13
0 -47 3 -75 6 l-53 7 0 -42 c0 -40 1 -41 35 -41 34 0 35 -1 35 -40 0 -39 -1
-40 -35 -40 -34 0 -35 1 -35 40 l0 40 -75 0 -75 0 0 -75 0 -75 -40 0 c-39 0
-40 1 -40 35 l0 35 -75 0 -75 0 0 40 c0 39 1 40 35 40 33 0 35 2 35 34 l0 34
-70 7 -70 7 0 34 c0 32 2 34 35 34 34 0 35 1 35 40 l0 40 75 0 75 0 0 35 c0
34 1 35 40 35 39 0 40 -1 40 -35 0 -34 -1 -35 -40 -35 l-40 0 0 -40 0 -40 190
0 190 0 0 81 0 80 38 -3 c35 -3 37 -5 40 -40z m372 -78 c0 -39 -1 -40 -35 -40
-34 0 -35 1 -35 40 0 39 1 40 35 40 34 0 35 -1 35 -40z m300 0 l0 -40 -75 0
-75 0 0 40 0 40 75 0 75 0 0 -40z m-70 -230 l0 -40 -40 0 -40 0 0 40 0 40 40
0 40 0 0 -40z m150 -385 c0 -33 -2 -35 -35 -35 -33 0 -35 2 -35 35 0 33 2 35
35 35 33 0 35 -2 35 -35z m-3170 -3510 c0 -33 -2 -35 -35 -35 -33 0 -35 2 -35
35 0 33 2 35 35 35 33 0 35 -2 35 -35z m-80 -75 c0 -39 -1 -40 -35 -40 -34 0
-35 1 -35 40 0 39 1 40 35 40 34 0 35 -1 35 -40z m-370 -155 c0 -33 -2 -35
-35 -35 -33 0 -35 2 -35 35 0 33 2 35 35 35 33 0 35 -2 35 -35z m-610 -610 c0
-33 -2 -35 -35 -35 -33 0 -35 2 -35 35 0 33 2 35 35 35 33 0 35 -2 35 -35z
m460 0 c0 -33 -2 -35 -35 -35 -33 0 -35 2 -35 35 0 33 2 35 35 35 33 0 35 -2
35 -35z m1280 -150 c0 -33 -2 -35 -35 -35 -33 0 -35 2 -35 35 0 33 2 35 35 35
33 0 35 -2 35 -35z m-1060 -230 c0 -33 -2 -35 -35 -35 -33 0 -35 2 -35 35 0
33 2 35 35 35 33 0 35 -2 35 -35z m450 -80 c0 -33 -2 -35 -35 -35 -33 0 -35 2
-35 35 0 33 2 35 35 35 33 0 35 -2 35 -35z m910 -70 c0 -33 -2 -35 -35 -35
-33 0 -35 2 -35 35 0 33 2 35 35 35 33 0 35 -2 35 -35z m-1660 -80 c0 -33 -2
-35 -35 -35 -33 0 -35 2 -35 35 0 33 2 35 35 35 33 0 35 -2 35 -35z m450 0 c0
-33 -2 -35 -35 -35 -33 0 -35 2 -35 35 0 33 2 35 35 35 33 0 35 -2 35 -35z
m1590 0 c0 -33 -2 -35 -35 -35 -33 0 -35 2 -35 35 0 33 2 35 35 35 33 0 35 -2
35 -35z m-460 -80 c0 -33 -2 -35 -35 -35 -33 0 -35 2 -35 35 0 33 2 35 35 35
33 0 35 -2 35 -35z m-2790 -75 c0 -39 -1 -40 -35 -40 -34 0 -35 1 -35 40 0 39
1 40 35 40 34 0 35 -1 35 -40z m460 5 c0 -33 -2 -35 -35 -35 -33 0 -35 2 -35
35 0 33 2 35 35 35 33 0 35 -2 35 -35z m450 0 c0 -33 -2 -35 -35 -35 -33 0
-35 2 -35 35 0 33 2 35 35 35 33 0 35 -2 35 -35z m450 0 c0 -33 -2 -35 -35
-35 -33 0 -35 2 -35 35 0 33 2 35 35 35 33 0 35 -2 35 -35z m1660 0 c0 -33 -2
-35 -35 -35 -33 0 -35 2 -35 35 0 33 2 35 35 35 33 0 35 -2 35 -35z m-1430
-80 c0 -33 -2 -35 -35 -35 -33 0 -35 2 -35 35 0 33 2 35 35 35 33 0 35 -2 35
-35z m680 0 c0 -33 -2 -35 -35 -35 -33 0 -35 2 -35 35 0 33 2 35 35 35 33 0
35 -2 35 -35z m1960 0 c0 -33 -2 -35 -35 -35 -33 0 -35 2 -35 35 0 33 2 35 35
35 33 0 35 -2 35 -35z m-3620 -75 c0 -39 -1 -40 -35 -40 -34 0 -35 1 -35 40 0
39 1 40 35 40 34 0 35 -1 35 -40z m900 0 c0 -39 -1 -40 -35 -40 -34 0 -35 1
-35 40 0 39 1 40 35 40 34 0 35 -1 35 -40z m530 0 l0 -40 -40 0 -40 0 0 40 0
40 40 0 40 0 0 -40z m980 0 c0 -39 -1 -40 -35 -40 -34 0 -35 1 -35 40 0 39 1
40 35 40 34 0 35 -1 35 -40z m-600 -80 c0 -39 -1 -40 -35 -40 -34 0 -35 1 -35
40 0 39 1 40 35 40 34 0 35 -1 35 -40z m-752 -72 l3 -38 -40 0 -41 0 0 41 0
40 38 -3 c35 -3 37 -5 40 -40z m-758 -3 c0 -33 -2 -35 -35 -35 -33 0 -35 2
-35 35 0 33 2 35 35 35 33 0 35 -2 35 -35z m1880 0 c0 -33 -2 -35 -35 -35 -33
0 -35 2 -35 35 0 33 2 35 35 35 33 0 35 -2 35 -35z m-7010 -75 l0 -40 -70 0
-70 0 0 40 0 40 70 0 70 0 0 -40z m4370 0 c0 -39 -1 -40 -35 -40 -34 0 -35 1
-35 40 0 39 1 40 35 40 34 0 35 -1 35 -40z m1970 0 l0 -40 -40 0 -40 0 0 40 0
40 40 0 40 0 0 -40z m-1590 -75 c0 -33 -2 -35 -35 -35 -33 0 -35 2 -35 35 0
33 2 35 35 35 33 0 35 -2 35 -35z m1960 0 c0 -33 -2 -35 -35 -35 -33 0 -35 2
-35 35 0 33 2 35 35 35 33 0 35 -2 35 -35z m-1580 -80 c0 -33 -2 -35 -35 -35
-33 0 -35 2 -35 35 0 33 2 35 35 35 33 0 35 -2 35 -35z m900 0 c0 -33 -2 -35
-35 -35 -33 0 -35 2 -35 35 0 33 2 35 35 35 33 0 35 -2 35 -35z m980 0 c0 -33
-2 -35 -35 -35 -33 0 -35 -2 -35 -35 0 -33 -2 -35 -35 -35 -33 0 -35 2 -35 35
0 33 2 35 35 35 33 0 35 2 35 35 0 33 2 35 35 35 33 0 35 -2 35 -35z m-2260
-70 l0 -35 -70 0 -70 0 0 35 0 35 70 0 70 0 0 -35z m680 0 c0 -33 -2 -35 -35
-35 -33 0 -35 2 -35 35 0 33 2 35 35 35 33 0 35 -2 35 -35z m980 0 c0 -33 -2
-35 -35 -35 -33 0 -35 2 -35 35 0 33 2 35 35 35 33 0 35 -2 35 -35z m-282 -41
c51 -7 52 -7 52 -40 l0 -34 -70 0 -70 0 0 40 c0 45 -1 44 88 34z m-1068 -39
c0 -34 -1 -35 -40 -35 -39 0 -40 1 -40 35 0 34 1 35 40 35 39 0 40 -1 40 -35z
m750 -6 l0 -42 -52 7 c-29 3 -63 6 -75 6 -20 0 -23 5 -23 35 l0 35 75 0 75 0
0 -41z m-322 -39 c19 0 22 -5 22 -35 l0 -35 -75 0 -75 0 0 41 0 42 53 -7 c28
-3 62 -6 75 -6z m922 -35 c0 -33 -2 -35 -35 -35 -33 0 -35 2 -35 35 0 33 2 35
35 35 33 0 35 -2 35 -35z m-1352 -72 c-3 -36 -5 -38 -40 -41 l-38 -3 0 40 0
41 41 0 40 0 -3 -37z m752 -4 l0 -40 -37 3 c-36 3 -38 5 -41 41 l-3 37 40 0
41 0 0 -41z m300 -40 l0 -80 -37 3 -38 3 -3 78 -3 77 41 0 40 0 0 -81z m680
46 c0 -33 -2 -35 -35 -35 -33 0 -35 2 -35 35 0 33 2 35 35 35 33 0 35 -2 35
-35z m-2110 -80 c0 -33 -2 -35 -35 -35 -33 0 -35 2 -35 35 0 33 2 35 35 35 33
0 35 -2 35 -35z m370 -75 c0 -39 -1 -40 -35 -40 -34 0 -35 1 -35 40 0 39 1 40
35 40 34 0 35 -1 35 -40z m760 0 l0 -40 -40 0 c-39 0 -40 1 -40 33 0 42 5 47
47 47 32 0 33 -1 33 -40z m600 -5 l0 -35 -75 0 -75 0 0 35 0 35 75 0 75 0 0
-35z m-1730 -70 c0 -33 -2 -35 -35 -35 -33 0 -35 2 -35 35 0 33 2 35 35 35 33
0 35 -2 35 -35z m750 0 l0 -35 -75 0 -75 0 0 35 0 35 75 0 75 0 0 -35z m680
-40 l0 -75 -40 0 c-45 0 -45 1 -34 98 7 51 7 52 40 52 l34 0 0 -75z m-322 -5
c19 0 22 -5 22 -35 l0 -35 -75 0 -75 0 0 41 0 42 53 -7 c28 -3 62 -6 75 -6z
m-728 -35 c0 -34 -1 -35 -40 -35 -39 0 -40 1 -40 35 0 34 1 35 40 35 39 0 40
-1 40 -35z m1280 -40 l0 -75 -40 0 -40 0 0 75 0 75 40 0 40 0 0 -75z m-3170
-35 l0 -40 -40 0 -40 0 0 40 0 40 40 0 40 0 0 -40z m2270 0 l0 -40 -80 0 -80
0 0 40 0 40 80 0 80 0 0 -40z m-390 -75 l0 -35 -70 0 -70 0 0 35 0 35 70 0 70
0 0 -35z m690 -40 l0 -75 -40 0 -40 0 0 75 0 75 40 0 40 0 0 -75z m370 35 l0
-40 -40 0 -40 0 0 40 0 40 40 0 40 0 0 -40z m-750 -75 c0 -34 -1 -35 -40 -35
-39 0 -40 1 -40 35 0 34 1 35 40 35 39 0 40 -1 40 -35z m980 0 c0 -34 -1 -35
-40 -35 -39 0 -40 1 -40 35 0 34 1 35 40 35 39 0 40 -1 40 -35z m-1660 -70 c0
-33 -2 -35 -35 -35 -33 0 -35 2 -35 35 0 33 2 35 35 35 33 0 35 -2 35 -35z
m1055 -80 c0 -39 -1 -40 -37 -43 l-38 -3 0 46 0 46 38 -3 c36 -3 37 -4 37 -43z
m323 39 c51 -7 52 -7 52 -40 0 -29 -4 -34 -22 -34 -13 0 -47 -3 -75 -6 l-53
-7 0 47 c0 52 -1 51 98 40z m-1078 -39 c0 -33 -2 -35 -35 -35 -33 0 -35 2 -35
35 0 33 2 35 35 35 33 0 35 -2 35 -35z m1360 0 c0 -34 -1 -35 -40 -35 -39 0
-40 1 -40 35 0 34 1 35 40 35 39 0 40 -1 40 -35z m-980 -75 l0 -40 -40 0 -40
0 0 40 0 40 40 0 40 0 0 -40z m-680 -75 l0 -35 -75 0 -75 0 0 35 0 35 75 0 75
0 0 -35z m1050 -40 l0 -75 -35 0 -35 0 0 75 0 75 35 0 35 0 0 -75z m380 40 c0
-30 -3 -35 -22 -35 -13 0 -47 -3 -75 -6 l-53 -7 0 42 0 41 75 0 75 0 0 -35z
m-1130 -75 l0 -40 -40 0 c-39 0 -40 1 -40 33 0 42 5 47 47 47 32 0 33 -1 33
-40z m380 -80 l0 -40 -80 0 -80 0 0 34 c0 34 1 35 43 39 120 11 117 11 117
-33z m-760 -75 c0 -33 -2 -35 -35 -35 -33 0 -35 2 -35 35 0 33 2 35 35 35 33
0 35 -2 35 -35z m380 -6 l0 -40 -37 3 c-36 3 -38 5 -41 41 l-3 37 40 0 41 0 0
-41z m750 7 l0 -34 -65 -7 c-35 -3 -69 -4 -75 0 -5 3 -10 22 -10 41 l0 34 75
0 75 0 0 -34z m300 -1 c0 -33 -2 -35 -35 -35 -33 0 -35 2 -35 35 0 33 2 35 35
35 33 0 35 -2 35 -35z m-670 -80 l0 -35 -75 0 -75 0 0 35 0 35 75 0 75 0 0
-35z m680 -75 l0 -40 -75 0 -75 0 0 40 0 40 75 0 75 0 0 -40z m-1140 -75 c0
-33 -2 -35 -35 -35 -33 0 -35 2 -35 35 0 33 2 35 35 35 33 0 35 -2 35 -35z
m760 0 c0 -34 -1 -35 -40 -35 -39 0 -40 1 -40 35 0 34 1 35 40 35 39 0 40 -1
40 -35z m-380 -75 l0 -40 -40 0 c-39 0 -40 1 -40 33 0 42 5 47 47 47 32 0 33
-1 33 -40z m-750 -75 c0 -33 -2 -35 -35 -35 -33 0 -35 2 -35 35 0 33 2 35 35
35 33 0 35 -2 35 -35z m1130 -40 l0 -75 -40 0 -40 0 0 75 0 75 40 0 40 0 0
-75z m300 40 c0 -34 -1 -35 -40 -35 -39 0 -40 1 -40 35 0 34 1 35 40 35 39 0
40 -1 40 -35z m-1060 -80 c0 -33 -2 -35 -35 -35 -33 0 -35 2 -35 35 0 33 2 35
35 35 33 0 35 -2 35 -35z m380 -75 l0 -40 -75 0 -75 0 0 34 c0 34 1 35 43 39
112 10 107 11 107 -33z m680 -40 l0 -70 -75 0 -75 0 0 70 0 70 75 0 75 0 0
-70z m-1430 -35 c0 -33 -2 -35 -35 -35 -33 0 -35 2 -35 35 0 33 2 35 35 35 33
0 35 -2 35 -35z m370 0 l0 -35 -70 0 -70 0 0 35 0 35 70 0 70 0 0 -35z m760 1
c0 -33 -1 -33 -52 -40 -97 -11 -98 -11 -98 34 l0 40 75 0 75 0 0 -34z m-380
-82 l0 -47 -52 7 c-29 3 -63 6 -75 6 -20 0 -23 5 -23 40 l0 40 75 0 75 0 0
-46z m380 -79 c0 -33 -2 -35 -35 -35 -33 0 -35 -2 -35 -35 0 -34 -1 -35 -40
-35 -39 0 -40 1 -40 35 0 33 2 35 35 35 33 0 35 2 35 35 0 34 1 35 40 35 39 0
40 -1 40 -35z m300 0 l0 -35 -75 0 -75 0 0 35 0 35 75 0 75 0 0 -35z m0 -225
l0 -40 -75 0 -75 0 0 40 0 40 75 0 75 0 0 -40z m-1810 -75 c0 -33 -2 -35 -35
-35 -33 0 -35 2 -35 35 0 33 2 35 35 35 33 0 35 -2 35 -35z m300 -5 l0 -40 40
0 c39 0 40 -1 40 -35 l0 -35 -74 0 -75 0 -3 38 c-3 35 -5 37 -40 40 -36 3 -38
5 -38 38 l0 34 75 0 75 0 0 -40z m1360 -75 c0 -34 1 -35 40 -35 39 0 40 -1 40
-35 0 -33 2 -35 35 -35 35 0 35 0 35 -45 l0 -45 -75 0 -75 0 0 -35 c0 -33 -2
-35 -35 -35 -33 0 -35 2 -35 35 0 33 2 35 35 35 l35 0 0 80 0 80 -40 0 -40 0
0 -75 0 -75 -70 0 -70 0 0 75 0 75 70 0 70 0 0 35 c0 34 1 35 40 35 39 0 40
-1 40 -35z m-610 -70 c0 -33 -2 -35 -35 -35 -33 0 -35 2 -35 35 0 33 2 35 35
35 33 0 35 -2 35 -35z m240 -5 l0 -40 -40 0 -40 0 0 40 0 40 40 0 40 0 0 -40z
m-1140 -110 l0 -80 75 0 75 0 0 -34 0 -34 -75 -7 -75 -7 0 -34 c0 -32 -2 -34
-34 -34 l-33 0 -6 147 c-3 82 -3 151 0 155 2 5 20 8 39 8 l34 0 0 -80z m-530
35 c0 -33 -2 -35 -35 -35 -33 0 -35 2 -35 35 0 33 2 35 35 35 33 0 35 -2 35
-35z m230 -80 c0 -33 -2 -35 -35 -35 -33 0 -35 2 -35 35 0 33 2 35 35 35 33 0
35 -2 35 -35z m1360 0 c0 -34 -1 -35 -40 -35 -39 0 -40 1 -40 35 0 34 1 35 40
35 39 0 40 -1 40 -35z m220 -70 c0 -33 -2 -35 -35 -35 -33 0 -35 2 -35 35 0
33 2 35 35 35 33 0 35 -2 35 -35z m-92 -45 c18 0 22 -5 22 -34 0 -33 -2 -35
-37 -38 -36 -3 -38 -5 -41 -40 -3 -36 -5 -38 -38 -38 l-34 0 0 -75 0 -75 75 0
75 0 0 75 0 75 35 0 35 0 0 -75 0 -75 -35 0 c-34 0 -35 -1 -35 -40 l0 -40 -40
0 c-39 0 -40 -1 -40 -35 0 -33 -2 -35 -35 -35 l-35 0 0 75 0 75 -40 0 -40 0 0
75 0 75 40 0 40 0 0 81 0 82 53 -7 c28 -3 62 -6 75 -6z m250 -5 c2 -2 0 -35
-4 -74 l-7 -71 -68 0 -69 0 0 81 0 81 73 -7 c39 -4 73 -9 75 -10z m-1888 -30
c0 -33 -2 -35 -35 -35 -33 0 -35 2 -35 35 0 33 2 35 35 35 33 0 35 -2 35 -35z
m1358 -2 c-3 -36 -5 -38 -40 -41 l-38 -3 0 40 0 41 41 0 40 0 -3 -37z m752
-73 l0 -40 -75 0 -75 0 0 -40 c0 -39 -1 -40 -35 -40 -34 0 -35 1 -35 40 0 39
1 40 35 40 34 0 35 1 35 40 l0 40 75 0 75 0 0 -40z m-1810 -5 c0 -33 -2 -35
-35 -35 -33 0 -35 2 -35 35 0 33 2 35 35 35 33 0 35 -2 35 -35z m530 0 c0 -34
-1 -35 -40 -35 -39 0 -40 1 -40 35 0 34 1 35 40 35 39 0 40 -1 40 -35z m-304
-87 c-3 -29 -6 -63 -6 -75 0 -22 -4 -23 -75 -23 l-75 0 0 -40 c0 -39 -1 -40
-35 -40 l-35 0 0 75 0 75 75 0 75 0 0 40 0 40 41 0 42 0 -7 -52z m-526 -63 c0
-34 -1 -35 -40 -35 -39 0 -40 1 -40 35 0 34 1 35 40 35 39 0 40 -1 40 -35z
m750 -75 c0 -39 -1 -40 -35 -40 -34 0 -35 1 -35 40 0 39 1 40 35 40 34 0 35
-1 35 -40z m-530 -75 c0 -33 -2 -35 -35 -35 -33 0 -35 2 -35 35 0 33 2 35 35
35 33 0 35 -2 35 -35z m390 0 l0 -35 -80 0 -80 0 0 -40 0 -40 -41 0 -40 0 3
38 c3 35 5 37 41 40 35 3 37 5 37 38 l0 34 80 0 80 0 0 -35z m750 0 c0 -34 -1
-35 -40 -35 -39 0 -40 1 -40 35 0 34 1 35 40 35 39 0 40 -1 40 -35z m520 -5
l0 -40 -70 0 -70 0 0 40 0 40 70 0 70 0 0 -40z m230 6 c0 -33 -1 -33 -52 -40
-97 -11 -98 -11 -98 34 l0 40 75 0 75 0 0 -34z m150 -76 l0 -40 -40 0 -40 0 0
-40 c0 -39 -1 -40 -35 -40 -34 0 -35 1 -35 40 0 39 1 40 35 40 34 0 35 1 35
40 l0 40 40 0 40 0 0 -40z m-530 -40 l0 -70 -35 0 -35 0 0 70 0 70 35 0 35 0
0 -70z m-1430 -35 c0 -33 -2 -35 -35 -35 -33 0 -35 2 -35 35 0 33 2 35 35 35
33 0 35 -2 35 -35z m380 -40 l0 -75 -62 0 c-35 0 -87 -3 -115 -6 l-53 -7 0 42
0 41 80 0 80 0 0 40 c0 39 1 40 35 40 l35 0 0 -75z m830 40 c0 -34 -1 -35 -40
-35 -39 0 -40 1 -40 35 0 34 1 35 40 35 39 0 40 -1 40 -35z m450 0 c0 -33 -2
-35 -35 -35 -33 0 -35 2 -35 35 0 33 2 35 35 35 33 0 35 -2 35 -35z m-380 -80
c0 -34 1 -35 40 -35 l40 0 0 -40 0 -40 -75 0 -75 0 0 -75 0 -75 -40 0 -40 0 0
75 0 75 40 0 40 0 0 75 0 75 35 0 c33 0 35 -2 35 -35z m-220 -75 l0 -40 -40 0
-40 0 0 40 0 40 40 0 40 0 0 -40z m520 0 c0 -39 -1 -40 -35 -40 -33 0 -35 -2
-35 -35 0 -33 -2 -35 -35 -35 l-35 0 0 69 0 70 38 4 c104 11 102 11 102 -33z
m178 34 c51 -7 52 -7 52 -40 0 -33 1 -34 40 -34 39 0 40 1 40 35 0 33 2 35 35
35 l35 0 0 -75 0 -75 -40 0 -40 0 0 -40 c0 -39 -1 -40 -35 -40 l-35 0 0 80 0
80 -35 0 c-33 0 -35 -2 -35 -35 0 -30 -3 -35 -22 -35 -13 0 -47 -3 -75 -6
l-53 -7 0 42 c0 40 1 41 35 41 34 0 35 1 35 40 0 45 1 45 98 34z m-2138 -39
c0 -33 -2 -35 -35 -35 -33 0 -35 2 -35 35 0 33 2 35 35 35 33 0 35 -2 35 -35z
m230 0 c0 -33 -2 -35 -35 -35 -33 0 -35 2 -35 35 0 33 2 35 35 35 33 0 35 -2
35 -35z m230 0 c0 -34 -1 -35 -40 -35 -39 0 -40 -1 -40 -35 0 -33 -2 -35 -35
-35 -33 0 -35 2 -35 35 0 33 2 35 35 35 33 0 35 2 35 35 0 34 1 35 40 35 39 0
40 -1 40 -35z m230 -57 c0 -13 -3 -47 -6 -75 l-7 -53 -40 0 -40 0 7 53 c3 28
6 62 6 75 0 19 5 22 40 22 35 0 40 -3 40 -22z m1800 -93 l0 -45 -40 0 c-39 0
-40 -1 -40 -35 0 -33 -2 -35 -35 -35 -34 0 -35 1 -35 40 0 39 1 40 35 40 34 0
35 1 35 40 l0 40 40 0 40 0 0 -45z m-450 -75 l0 -40 40 0 c39 0 40 -1 40 -35
0 -33 2 -35 35 -35 34 0 35 -1 35 -40 0 -39 1 -40 34 -40 33 0 35 2 38 38 3
35 5 37 41 40 l37 3 0 -40 0 -41 -40 0 -40 0 0 -40 c0 -39 -1 -40 -35 -40 -34
0 -35 1 -35 40 l0 40 -40 0 -40 0 0 -40 c0 -39 -1 -40 -35 -40 l-35 0 0 115 0
115 -35 0 c-34 0 -35 1 -35 40 0 39 1 40 35 40 34 0 35 -1 35 -40z m-1510 -5
c0 -33 -2 -35 -35 -35 -33 0 -35 2 -35 35 0 33 2 35 35 35 33 0 35 -2 35 -35z
m-150 -75 c0 -39 -1 -40 -35 -40 -33 0 -35 -2 -35 -35 0 -34 -1 -35 -40 -35
-39 0 -40 1 -40 35 0 33 2 35 35 35 34 0 35 1 35 40 l0 40 40 0 40 0 0 -40z
m1060 0 l0 -40 -40 0 -40 0 0 40 0 40 40 0 40 0 0 -40z m300 -35 l0 -75 -40 0
c-39 0 -40 1 -40 35 0 33 -2 35 -35 35 -34 0 -35 1 -35 40 l0 40 75 0 75 0 0
-75z m220 0 l0 -75 -76 0 -77 0 7 53 c3 28 6 62 6 75 0 21 4 22 70 22 l70 0 0
-75z m-1350 -35 l0 -40 -40 0 -40 0 0 40 0 40 40 0 40 0 0 -40z m-530 -5 c0
-33 -2 -35 -35 -35 -33 0 -35 2 -35 35 0 33 2 35 35 35 33 0 35 -2 35 -35z
m830 -75 c0 -39 -1 -40 -35 -40 -34 0 -35 1 -35 40 0 39 1 40 35 40 34 0 35
-1 35 -40z m450 0 c0 -39 -1 -40 -35 -40 -34 0 -35 1 -35 40 0 39 1 40 35 40
34 0 35 -1 35 -40z m230 0 l0 -40 -40 0 -40 0 0 40 0 40 40 0 40 0 0 -40z
m1130 -40 l0 -80 -75 0 -75 0 0 40 0 40 40 0 40 0 0 40 c0 39 1 40 35 40 l35
0 0 -80z m-2270 -35 c0 -33 -2 -35 -35 -35 -33 0 -35 2 -35 35 0 33 2 35 35
35 33 0 35 -2 35 -35z m380 0 c0 -33 -2 -35 -35 -35 -33 0 -35 2 -35 35 0 33
2 35 35 35 33 0 35 -2 35 -35z m1660 0 c0 -33 -2 -35 -35 -35 -33 0 -35 2 -35
35 0 33 2 35 35 35 33 0 35 -2 35 -35z m-2185 -110 c3 -35 4 -69 0 -75 -3 -5
-22 -10 -41 -10 l-34 0 0 75 0 75 34 0 34 0 7 -65z m225 30 c0 -33 2 -35 35
-35 33 0 35 -2 35 -35 l0 -35 -70 0 -70 0 0 70 0 70 35 0 c33 0 35 -2 35 -35z
m900 -35 l0 -70 -70 0 -70 0 0 35 c0 33 2 35 35 35 33 0 35 2 35 35 0 33 2 35
35 35 l35 0 0 -70z m238 -2 l-3 -73 -37 -3 -38 -3 0 75 0 76 40 0 41 0 -3 -72z
m222 37 c0 -33 2 -35 35 -35 34 0 35 -1 35 -40 l0 -40 -70 0 -70 0 0 75 0 75
35 0 c33 0 35 -2 35 -35z m-1052 -72 c-3 -36 -5 -38 -40 -41 l-38 -3 0 40 0
41 41 0 40 0 -3 -37z m292 2 c0 -33 -2 -35 -35 -35 -33 0 -35 2 -35 35 0 33 2
35 35 35 33 0 35 -2 35 -35z m1060 1 l0 -34 -75 -7 -75 -7 0 -74 0 -74 -35 0
-35 0 0 75 0 75 35 0 c34 0 35 1 35 40 l0 40 75 0 75 0 0 -34z m150 -46 l0
-80 -40 0 c-39 0 -40 -1 -40 -35 0 -33 -2 -35 -35 -35 l-35 0 0 75 0 75 35 0
c34 0 35 1 35 40 l0 40 40 0 40 0 0 -80z m230 -35 l0 -45 -40 0 c-39 0 -40 -1
-40 -35 0 -33 -2 -35 -35 -35 l-35 0 0 74 0 75 38 4 c20 2 54 4 75 5 l37 2 0
-45z m-1060 0 c0 -33 -2 -35 -35 -35 -33 0 -35 2 -35 35 0 33 2 35 35 35 33 0
35 -2 35 -35z m1280 -40 l0 -75 -76 0 -75 0 3 38 c3 35 5 37 41 40 35 3 37 5
37 38 0 32 2 34 35 34 l35 0 0 -75z m-2340 -40 c0 -33 -2 -35 -35 -35 -33 0
-35 2 -35 35 0 33 2 35 35 35 33 0 35 -2 35 -35z m230 0 c0 -33 -2 -35 -35
-35 -33 0 -35 2 -35 35 0 33 2 35 35 35 33 0 35 -2 35 -35z m600 0 c0 -33 -2
-35 -35 -35 -33 0 -35 2 -35 35 0 33 2 35 35 35 33 0 35 -2 35 -35z m384 -87
c12 -105 11 -108 -34 -108 -39 0 -40 -1 -40 -35 0 -34 -1 -35 -40 -35 -39 0
-40 1 -40 35 0 34 1 35 40 35 l40 0 0 80 0 80 34 0 c33 0 33 -1 40 -52z
m-1134 -63 l0 -45 -40 0 c-39 0 -40 -1 -40 -35 0 -33 -2 -35 -35 -35 -33 0
-35 2 -35 35 0 33 2 35 35 35 34 0 35 1 35 38 0 47 4 52 47 52 33 0 33 -1 33
-45z m300 -1 l0 -47 -52 7 c-29 3 -61 6 -70 6 -14 0 -18 8 -18 34 0 33 2 35
38 39 105 11 102 12 102 -39z m248 40 c51 -7 52 -7 52 -40 0 -26 -4 -34 -17
-34 -10 0 -42 -3 -70 -6 l-53 -7 0 47 c0 51 -2 50 88 40z m300 0 c51 -7 52 -8
52 -39 l0 -33 -65 -7 c-35 -3 -69 -4 -75 0 -11 7 -14 68 -3 78 8 9 23 9 91 1z
m530 0 c51 -7 52 -7 52 -40 0 -32 -2 -34 -35 -34 -34 0 -35 -1 -35 -40 l0 -40
-40 0 c-39 0 -40 -1 -40 -35 0 -33 -2 -35 -35 -35 -33 0 -35 2 -35 35 0 33 2
35 34 35 l35 0 7 80 c7 89 2 84 92 74z m-1678 -79 l0 -75 -35 0 -35 0 0 75 0
75 35 0 35 0 0 -75z m1890 40 c0 -33 2 -35 35 -35 34 0 35 -1 35 -40 0 -39 1
-40 34 -40 33 0 35 2 38 38 3 35 5 37 41 40 l37 3 0 -40 0 -41 -40 0 c-39 0
-40 -1 -40 -35 0 -33 -2 -35 -35 -35 -33 0 -35 2 -35 35 l0 35 -75 0 -75 0 0
-35 c0 -33 -2 -35 -35 -35 -33 0 -35 2 -35 35 0 33 2 35 35 35 l35 0 0 75 0
75 40 0 c39 0 40 -1 40 -35z m450 -110 l0 -75 -80 0 -80 0 0 35 c0 34 1 35 40
35 l40 0 0 40 0 40 40 0 40 0 0 -75z m-2570 30 c0 -33 -2 -35 -35 -35 -33 0
-35 2 -35 35 0 33 2 35 35 35 33 0 35 -2 35 -35z m760 -70 c0 -33 -2 -35 -35
-35 -33 0 -35 2 -35 35 0 33 2 35 35 35 33 0 35 -2 35 -35z m2038 -2 c-3 -36
-5 -38 -40 -41 -36 -3 -38 -5 -38 -38 0 -33 -1 -34 -41 -34 l-40 0 3 38 c3 35
5 37 41 40 35 3 37 5 37 38 0 33 1 34 41 34 l40 0 -3 -37z m-2418 -78 c0 -34
1 -35 40 -35 l40 0 0 -40 0 -40 -40 0 c-39 0 -40 -1 -40 -35 0 -33 -2 -35 -35
-35 -33 0 -35 2 -35 35 0 33 2 35 35 35 34 0 35 1 35 40 0 39 -1 40 -35 40
-33 0 -35 2 -35 35 0 33 2 35 35 35 33 0 35 -2 35 -35z m-230 -75 c0 -39 -1
-40 -35 -40 -34 0 -35 1 -35 40 0 39 1 40 35 40 34 0 35 -1 35 -40z m610 0 c0
-39 -1 -40 -35 -40 -34 0 -35 1 -35 40 0 39 1 40 35 40 34 0 35 -1 35 -40z
m300 0 l0 -40 -40 0 -40 0 0 40 0 40 40 0 40 0 0 -40z m300 0 l0 -40 -40 0
-40 0 0 40 0 40 40 0 40 0 0 -40z m300 0 c0 -39 -1 -40 -35 -40 -34 0 -35 1
-35 40 0 39 1 40 35 40 34 0 35 -1 35 -40z m230 0 l0 -40 -40 0 -40 0 0 40 0
40 40 0 40 0 0 -40z m-980 -115 l0 -75 -35 0 -35 0 0 75 0 75 35 0 35 0 0 -75z
m300 40 c0 -33 -2 -35 -35 -35 -33 0 -35 2 -35 35 0 33 2 35 35 35 33 0 35 -2
35 -35z m300 0 c0 -33 -2 -35 -35 -35 -33 0 -35 2 -35 35 0 33 2 35 35 35 33
0 35 -2 35 -35z m530 0 c0 -33 -2 -35 -35 -35 -33 0 -35 2 -35 35 0 33 2 35
35 35 33 0 35 -2 35 -35z m300 0 c0 -34 -1 -35 -40 -35 -39 0 -40 1 -40 35 0
34 1 35 40 35 39 0 40 -1 40 -35z m230 -5 l0 -40 -40 0 -40 0 0 -70 0 -70 -35
0 -35 0 0 70 0 70 35 0 c34 0 35 1 35 40 l0 40 40 0 40 0 0 -40z m230 0 l0
-40 -40 0 c-39 0 -40 -1 -40 -35 0 -33 -2 -35 -35 -35 -33 0 -35 2 -35 35 0
33 2 35 35 35 34 0 35 1 35 40 l0 40 40 0 40 0 0 -40z m-2200 -70 c0 -39 -1
-40 -35 -40 -34 0 -35 1 -35 40 0 39 1 40 35 40 34 0 35 -1 35 -40z m690 -75
c0 -33 2 -35 35 -35 35 0 35 0 35 -46 l0 -47 -52 7 c-29 3 -63 6 -75 6 -22 0
-23 4 -23 75 l0 75 40 0 c39 0 40 -1 40 -35z m300 -45 l0 -80 -40 0 -40 0 0
80 0 80 40 0 40 0 0 -80z m-1135 -35 c0 -39 -1 -40 -37 -43 l-38 -3 0 46 0 46
38 -3 c36 -3 37 -4 37 -43z m305 -1 l0 -45 -37 3 c-37 3 -38 4 -41 46 l-3 42
40 0 41 0 0 -46z m300 1 c0 -51 1 -50 -97 -39 l-53 7 0 38 0 39 75 0 75 0 0
-45z m830 -35 l0 -80 35 0 c33 0 35 -2 35 -35 0 -33 -2 -35 -35 -35 -33 0 -35
2 -35 35 0 34 -1 35 -40 35 -39 0 -40 1 -40 35 0 33 -2 35 -35 35 -35 0 -35 0
-35 45 l0 45 75 0 75 0 0 -80z m-1660 -5 l0 -75 40 0 40 0 0 -40 0 -40 -40 0
-40 0 0 40 0 40 -40 0 -40 0 0 40 c0 39 -1 40 -35 40 -33 0 -35 2 -35 35 l0
35 75 0 75 0 0 -75z m1890 0 l0 -75 -40 0 -40 0 0 75 0 75 40 0 40 0 0 -75z
m220 0 l0 -75 -40 0 c-45 0 -45 1 -34 98 7 51 7 52 40 52 l34 0 0 -75z m230
35 c0 -39 1 -40 35 -40 33 0 35 -2 35 -35 l0 -35 -75 0 -75 0 0 -41 0 -40 -37
3 c-36 3 -38 5 -41 41 l-3 37 40 0 41 0 0 75 0 75 40 0 40 0 0 -40z m228 -72
c3 -36 5 -38 38 -38 32 0 34 -2 34 -35 l0 -35 -75 0 -75 0 0 -45 c0 -45 0 -45
-35 -45 l-35 0 0 80 0 80 35 0 c34 0 35 1 35 41 l0 40 38 -3 c35 -3 37 -5 40
-40z m-1888 -3 c0 -33 -2 -35 -35 -35 -33 0 -35 2 -35 35 0 33 2 35 35 35 33
0 35 -2 35 -35z m-310 -75 c0 -39 -1 -40 -35 -40 -34 0 -35 1 -35 40 0 39 1
40 35 40 34 0 35 -1 35 -40z m1140 5 c0 -33 -2 -35 -35 -35 -33 0 -35 2 -35
35 0 33 2 35 35 35 33 0 35 -2 35 -35z m1200 -80 c0 -33 -2 -35 -35 -35 -33 0
-35 2 -35 35 0 33 2 35 35 35 33 0 35 -2 35 -35z m-1955 -45 c4 -6 3 -40 0
-75 l-7 -65 -34 0 -34 0 0 75 0 75 34 0 c19 0 38 -5 41 -10z m303 -32 c3 -36
5 -38 38 -38 32 0 34 -2 34 -35 l0 -35 -75 0 -75 0 0 76 0 75 38 -3 c35 -3 37
-5 40 -40z m-528 -38 l0 -70 -75 0 -75 0 0 35 c0 33 2 35 35 35 33 0 35 2 35
35 0 34 1 35 40 35 l40 0 0 -70z m830 0 l0 -70 -40 0 c-39 0 -40 1 -40 35 0
33 -2 35 -35 35 -33 0 -35 2 -35 35 l0 35 75 0 75 0 0 -70z m300 0 c0 -66 -1
-70 -22 -70 -13 0 -47 -3 -75 -6 l-53 -7 0 77 0 76 75 0 75 0 0 -70z m-1732
-37 c-3 -36 -5 -38 -40 -41 l-38 -3 0 40 0 41 41 0 40 0 -3 -37z m300 0 c-3
-36 -5 -38 -40 -41 l-38 -3 0 40 0 41 41 0 40 0 -3 -37z m1652 -3 l0 -40 -70
0 -70 0 0 40 0 40 70 0 70 0 0 -40z m230 0 l0 -40 -40 0 c-39 0 -40 -1 -40
-35 l0 -35 -70 0 -70 0 0 34 0 34 70 7 70 7 0 34 c0 33 1 34 40 34 l40 0 0
-40z m230 -35 l0 -75 -40 0 -40 0 0 75 0 75 40 0 40 0 0 -75z m-1740 -40 c0
-33 -2 -35 -35 -35 -33 0 -35 2 -35 35 0 33 2 35 35 35 33 0 35 -2 35 -35z
m600 0 c0 -33 -2 -35 -35 -35 -33 0 -35 2 -35 35 0 33 2 35 35 35 33 0 35 -2
35 -35z m230 0 c0 -33 -2 -35 -35 -35 -33 0 -35 2 -35 35 0 33 2 35 35 35 33
0 35 -2 35 -35z m-1580 -75 c0 -39 -1 -40 -35 -40 -34 0 -35 1 -35 40 0 39 1
40 35 40 34 0 35 -1 35 -40z m230 0 l0 -40 -40 0 -40 0 0 40 0 40 40 0 40 0 0
-40z m428 -120 c21 0 22 -4 22 -70 l0 -70 -35 0 c-33 0 -35 2 -35 35 0 34 -1
35 -40 35 l-40 0 0 41 0 42 53 -7 c28 -3 62 -6 75 -6z m250 -32 c3 -36 5 -38
38 -38 32 0 34 -2 34 -35 0 -33 -2 -35 -35 -35 -33 0 -35 2 -35 35 0 34 -1 35
-40 35 l-40 0 0 41 0 40 38 -3 c35 -3 37 -5 40 -40z m292 2 l0 -40 -70 0 -70
0 0 40 0 40 70 0 70 0 0 -40z m288 30 c21 0 22 -4 22 -70 l0 -70 -40 0 c-39 0
-40 1 -40 35 0 34 -1 35 -40 35 -39 0 -40 1 -40 33 0 45 7 50 65 43 28 -3 60
-6 73 -6z m250 -32 c3 -36 5 -38 38 -38 32 0 34 -2 34 -35 0 -33 -2 -35 -35
-35 -33 0 -35 2 -35 35 0 34 -1 35 -40 35 l-40 0 0 41 0 40 38 -3 c35 -3 37
-5 40 -40z m222 -33 l0 -75 -40 0 -40 0 0 68 c0 38 3 72 7 75 3 4 21 7 40 7
l33 0 0 -75z m-1590 -5 l0 -70 -35 0 c-33 0 -35 2 -35 35 0 33 -2 35 -35 35
-33 0 -35 2 -35 35 l0 35 70 0 70 0 0 -70z m-300 -35 c0 -33 -2 -35 -35 -35
-33 0 -35 2 -35 35 0 33 2 35 35 35 33 0 35 -2 35 -35z m1210 0 c0 -33 -2 -35
-35 -35 -33 0 -35 2 -35 35 0 33 2 35 35 35 33 0 35 -2 35 -35z m-1060 -120
l0 -75 -35 0 -35 0 0 75 0 75 35 0 35 0 0 -75z m300 40 c0 -33 -2 -35 -35 -35
-33 0 -35 2 -35 35 0 33 2 35 35 35 33 0 35 -2 35 -35z m610 -155 c0 -39 1
-40 35 -40 33 0 35 -2 35 -35 l0 -35 -70 0 -70 0 0 75 0 75 35 0 c34 0 35 -1
35 -40z m-1060 -75 c0 -45 0 -45 -35 -45 -35 0 -35 0 -35 45 0 45 0 45 35 45
35 0 35 0 35 -45z m248 39 c51 -7 52 -7 52 -40 0 -26 -4 -34 -17 -34 -10 0
-42 -3 -70 -6 l-53 -7 0 47 c0 51 -2 50 88 40z m287 -39 l0 -40 -40 0 c-36 0
-40 2 -43 28 -6 47 4 59 45 55 37 -3 38 -4 38 -43z m300 0 c0 -39 -1 -40 -37
-43 l-38 -3 0 46 0 46 38 -3 c36 -3 37 -4 37 -43z m-455 -80 c0 -33 -2 -35
-35 -35 -33 0 -35 2 -35 35 0 33 2 35 35 35 33 0 35 -2 35 -35z m-230 -70 c0
-33 -2 -35 -35 -35 -33 0 -35 2 -35 35 0 33 2 35 35 35 33 0 35 -2 35 -35z"/>
<path d="M36240 20511 c0 -40 -1 -41 -35 -41 -34 0 -35 -1 -35 -40 0 -39 1
-40 35 -40 34 0 35 1 35 40 l0 40 41 0 40 0 -3 38 c-3 35 -5 37 -40 40 l-38 3
0 -40z"/>
<path d="M36690 20470 l0 -80 34 0 33 0 7 70 c4 38 4 74 1 80 -3 5 -22 10 -41
10 l-34 0 0 -80z"/>
<path d="M37820 15845 c0 -33 -2 -35 -35 -35 -33 0 -35 -2 -35 -35 l0 -35 75
0 75 0 0 70 0 70 -40 0 c-39 0 -40 -1 -40 -35z"/>
<path d="M37900 15620 l0 -40 -40 0 c-39 0 -40 -1 -40 -35 0 -34 1 -35 40 -35
39 0 40 1 40 35 l0 35 75 0 75 0 0 34 c0 33 -1 33 -52 40 -97 11 -98 11 -98
-34z"/>
<path d="M38050 15465 l0 -48 53 7 c28 3 78 6 110 6 l57 0 0 35 0 35 -57 0
c-32 0 -82 3 -110 6 l-53 7 0 -48z"/>
<path d="M39630 13325 c0 -33 2 -35 35 -35 33 0 35 2 35 35 0 33 -2 35 -35 35
-33 0 -35 -2 -35 -35z"/>
<path d="M39410 29515 c0 -33 2 -35 35 -35 33 0 35 2 35 35 0 33 -2 35 -35 35
-33 0 -35 -2 -35 -35z"/>
<path d="M39630 29445 c0 -34 1 -35 40 -35 39 0 40 1 40 35 0 34 -1 35 -40 35
-39 0 -40 -1 -40 -35z"/>
<path d="M39260 29370 c0 -39 1 -40 35 -40 34 0 35 1 35 40 0 39 -1 40 -35 40
-34 0 -35 -1 -35 -40z"/>
<path d="M39560 29365 c0 -33 2 -35 35 -35 33 0 35 2 35 35 0 33 -2 35 -35 35
-33 0 -35 -2 -35 -35z"/>
<path d="M39410 29285 c0 -33 2 -35 35 -35 33 0 35 2 35 35 0 33 -2 35 -35 35
-33 0 -35 -2 -35 -35z"/>
<path d="M40090 29215 c0 -33 2 -35 35 -35 33 0 35 2 35 35 0 33 -2 35 -35 35
-33 0 -35 -2 -35 -35z"/>
<path d="M39330 29055 l0 -35 75 0 75 0 0 35 0 35 -75 0 -75 0 0 -35z"/>
<path d="M39330 28830 c0 -39 1 -40 35 -40 34 0 35 1 35 40 0 39 -1 40 -35 40
-34 0 -35 -1 -35 -40z"/>
<path d="M38650 28215 c0 -33 2 -35 35 -35 33 0 35 2 35 35 0 33 -2 35 -35 35
-33 0 -35 -2 -35 -35z"/>
<path d="M38050 26925 c0 -33 2 -35 35 -35 33 0 35 2 35 35 0 33 -2 35 -35 35
-33 0 -35 -2 -35 -35z"/>
<path d="M44230 26615 c0 -34 1 -35 40 -35 l40 0 0 -40 c0 -39 1 -40 35 -40
l35 0 0 75 0 75 -75 0 -75 0 0 -35z"/>
<path d="M44010 26460 c0 -39 1 -40 35 -40 34 0 35 1 35 40 0 39 -1 40 -35 40
-34 0 -35 -1 -35 -40z"/>
<path d="M38050 26195 l0 -75 34 0 c33 0 33 1 40 53 11 96 11 97 -34 97 l-40
0 0 -75z"/>
<path d="M42950 24175 c0 -33 2 -35 35 -35 33 0 35 2 35 35 0 33 -2 35 -35 35
-33 0 -35 -2 -35 -35z"/>
<path d="M42650 23560 c0 -39 1 -40 35 -40 34 0 35 1 35 40 0 39 -1 40 -35 40
-34 0 -35 -1 -35 -40z"/>
<path d="M44268 22833 l-38 -4 0 -75 0 -74 34 0 34 0 7 -75 7 -75 34 0 c33 0
34 1 34 40 l0 40 40 0 c39 0 40 1 40 35 0 33 2 35 35 35 34 0 35 1 35 40 0 39
-1 40 -35 40 -34 0 -35 1 -35 40 l0 40 -77 -2 c-43 -1 -95 -3 -115 -5z"/>
<path d="M41140 22115 l0 -115 75 0 75 0 0 35 c0 33 -2 35 -34 35 l-34 0 -7
80 -7 80 -34 0 -34 0 0 -115z"/>
<path d="M41360 22035 l0 -35 75 0 75 0 0 35 0 35 -75 0 -75 0 0 -35z"/>
<path d="M42342 21653 c3 -36 5 -38 41 -41 l37 -3 0 40 0 41 -41 0 -40 0 3
-37z"/>
<path d="M40840 19890 c0 -39 -1 -40 -35 -40 -33 0 -35 -2 -35 -35 0 -33 2
-35 35 -35 l35 0 0 -115 0 -115 34 0 c33 0 35 -2 38 -37 3 -36 5 -38 41 -41
l37 -3 0 -75 0 -74 75 0 75 0 0 -40 c0 -39 1 -40 34 -40 l34 0 7 -69 7 -69 75
-8 75 -7 -7 -73 -7 -74 121 0 121 0 0 34 c0 34 -1 35 -42 38 l-43 3 -3 78 -3
77 -34 0 -35 0 0 75 0 75 -35 0 c-34 0 -35 1 -35 40 l0 40 -40 0 -40 0 0 115
0 115 -75 0 -75 0 0 40 c0 39 -1 40 -35 40 -33 0 -35 2 -35 35 0 34 -1 35 -40
35 l-40 0 0 40 0 40 -40 0 c-39 0 -40 1 -40 35 0 33 -2 35 -35 35 -34 0 -35
-1 -35 -40z"/>
<path d="M39860 17755 l0 -115 35 0 35 0 0 115 0 115 -35 0 -35 0 0 -115z"/>
<path d="M39790 17525 c0 -33 2 -35 35 -35 33 0 35 2 35 35 0 33 -2 35 -35 35
-33 0 -35 -2 -35 -35z"/>
<path d="M39940 17525 c0 -33 2 -35 35 -35 33 0 35 2 35 35 0 33 -2 35 -35 35
-33 0 -35 -2 -35 -35z"/>
<path d="M40090 17525 c0 -33 2 -35 35 -35 33 0 35 2 35 35 0 33 -2 35 -35 35
-33 0 -35 -2 -35 -35z"/>
<path d="M40840 17065 c0 -33 2 -35 35 -35 33 0 35 2 35 35 0 33 -2 35 -35 35
-33 0 -35 -2 -35 -35z"/>
<path d="M41750 16495 l0 -75 35 0 35 0 0 75 0 75 -35 0 -35 0 0 -75z"/>
<path d="M42730 16300 c0 -39 1 -40 35 -40 34 0 35 1 35 40 0 39 -1 40 -35 40
-34 0 -35 -1 -35 -40z"/>
<path d="M42500 16035 l0 -75 35 0 35 0 0 75 0 75 -35 0 -35 0 0 -75z"/>
<path d="M42880 15465 c0 -45 0 -45 35 -45 35 0 35 0 35 45 0 45 0 45 -35 45
-35 0 -35 0 -35 -45z"/>
<path d="M42580 15385 c0 -33 2 -35 35 -35 33 0 35 2 35 35 0 33 -2 35 -35 35
-33 0 -35 -2 -35 -35z"/>
<path d="M42500 14475 c0 -33 2 -35 35 -35 33 0 35 2 35 35 0 33 -2 35 -35 35
-33 0 -35 -2 -35 -35z"/>
<path d="M43710 10880 c0 -39 1 -40 35 -40 34 0 35 1 35 40 0 39 -1 40 -35 40
-34 0 -35 -1 -35 -40z"/>
<path d="M38050 9505 c0 -33 2 -35 35 -35 33 0 35 2 35 35 0 33 -2 35 -35 35
-33 0 -35 -2 -35 -35z"/>
<path d="M40840 7445 c0 -33 2 -35 35 -35 33 0 35 2 35 35 0 33 -2 35 -35 35
-33 0 -35 -2 -35 -35z"/>
<path d="M40920 7370 c0 -39 1 -40 35 -40 33 0 35 -2 35 -35 0 -30 3 -35 23
-35 12 0 46 -3 75 -6 l52 -7 0 42 0 41 -75 0 -75 0 0 40 c0 39 -1 40 -35 40
-34 0 -35 -1 -35 -40z"/>
<path d="M40690 7295 c0 -33 2 -35 35 -35 33 0 35 2 35 35 0 33 -2 35 -35 35
-33 0 -35 -2 -35 -35z"/>
<path d="M40770 7215 l0 -35 75 0 75 0 0 35 0 35 -75 0 -75 0 0 -35z"/>
<path d="M31490 7140 c0 -39 1 -40 35 -40 34 0 35 1 35 40 0 39 -1 40 -35 40
-34 0 -35 -1 -35 -40z"/>
<path d="M35040 1415 c0 -33 2 -35 35 -35 33 0 35 2 35 35 0 33 -2 35 -35 35
-33 0 -35 -2 -35 -35z"/>
<path d="M35040 1185 c0 -33 2 -35 35 -35 33 0 35 2 35 35 0 33 -2 35 -35 35
-33 0 -35 -2 -35 -35z"/>
<path d="M35040 725 c0 -33 2 -35 35 -35 33 0 35 2 35 35 0 33 -2 35 -35 35
-33 0 -35 -2 -35 -35z"/>
</g>
</svg>
